<svg width="751" height="460" viewBox="0 0 751 460" fill="none" xmlns="http://www.w3.org/2000/svg">
<g filter="url(#filter0_d_786_1685)">
<path fill-rule="evenodd" clip-rule="evenodd" d="M535.554 299.252L504 291.896L528.372 306.418L559.926 313.775L535.554 299.252Z" fill="#F2F2F2"/>
<path fill-rule="evenodd" clip-rule="evenodd" d="M504 291.895L537.182 213L561.554 227.523L528.372 306.418L504 291.895Z" fill="#F2F2F2"/>
<path fill-rule="evenodd" clip-rule="evenodd" d="M537.182 213L568.735 220.357L593.108 234.88L561.554 227.523L537.182 213Z" fill="#F2F2F2"/>
<path fill-rule="evenodd" clip-rule="evenodd" d="M568.736 220.356L562.974 234.058L587.346 248.581L593.109 234.879L568.736 220.356Z" fill="#F2F2F2"/>
<path fill-rule="evenodd" clip-rule="evenodd" d="M562.974 234.059L544.46 229.742L568.832 244.265L587.346 248.582L562.974 234.059Z" fill="#F2F2F2"/>
<path fill-rule="evenodd" clip-rule="evenodd" d="M544.459 229.742L537.163 247.09L561.535 261.613L568.832 244.265L544.459 229.742Z" fill="#F2F2F2"/>
<path fill-rule="evenodd" clip-rule="evenodd" d="M537.163 247.09L554.389 251.106L578.761 265.629L561.535 261.613L537.163 247.09Z" fill="#F2F2F2"/>
<path fill-rule="evenodd" clip-rule="evenodd" d="M554.389 251.106L548.626 264.808L572.998 279.331L578.761 265.629L554.389 251.106Z" fill="#F2F2F2"/>
<path fill-rule="evenodd" clip-rule="evenodd" d="M548.626 264.808L531.4 260.792L555.773 275.315L572.998 279.331L548.626 264.808Z" fill="#F2F2F2"/>
<path fill-rule="evenodd" clip-rule="evenodd" d="M531.4 260.792L522.849 281.124L547.221 295.646L555.772 275.315L531.4 260.792Z" fill="#F2F2F2"/>
<path fill-rule="evenodd" clip-rule="evenodd" d="M522.849 281.123L541.362 285.44L565.735 299.962L547.221 295.646L522.849 281.123Z" fill="#F2F2F2"/>
<path fill-rule="evenodd" clip-rule="evenodd" d="M541.363 285.439L535.554 299.252L559.926 313.775L565.735 299.962L541.363 285.439Z" fill="#F2F2F2"/>
<path fill-rule="evenodd" clip-rule="evenodd" d="M535.554 299.252L559.926 313.775L535.554 299.252Z" fill="#F2F2F2"/>
<path fill-rule="evenodd" clip-rule="evenodd" d="M599.25 247.127L591.697 262.353L616.07 276.876L623.622 261.65L599.25 247.127Z" fill="#F2F2F2"/>
<path fill-rule="evenodd" clip-rule="evenodd" d="M571.141 273.819L558.222 304.538L582.594 319.061L595.514 288.342L571.141 273.819Z" fill="#F2F2F2"/>
<path fill-rule="evenodd" clip-rule="evenodd" d="M558.222 304.537L545.343 301.534L569.715 316.057L582.594 319.06L558.222 304.537Z" fill="#F2F2F2"/>
<path fill-rule="evenodd" clip-rule="evenodd" d="M545.343 301.535L570.717 241.203L595.09 255.726L569.715 316.058L545.343 301.535Z" fill="#F2F2F2"/>
<path fill-rule="evenodd" clip-rule="evenodd" d="M570.717 241.203L580.376 243.455L604.748 257.978L595.089 255.726L570.717 241.203Z" fill="#F2F2F2"/>
<path fill-rule="evenodd" clip-rule="evenodd" d="M580.376 243.455L578.032 254.071L602.405 268.594L604.748 257.978L580.376 243.455Z" fill="#F2F2F2"/>
<path fill-rule="evenodd" clip-rule="evenodd" d="M578.032 254.071L578.676 254.221L603.049 268.744L602.405 268.594L578.032 254.071Z" fill="#F2F2F2"/>
<path fill-rule="evenodd" clip-rule="evenodd" d="M595.33 245.728L619.702 260.25L595.33 245.728Z" fill="#F2F2F2"/>
<path fill-rule="evenodd" clip-rule="evenodd" d="M634.403 255.323L626.851 270.549L651.223 285.072L658.776 269.846L634.403 255.323Z" fill="#F2F2F2"/>
<path fill-rule="evenodd" clip-rule="evenodd" d="M606.295 282.016L593.375 312.734L617.747 327.257L630.667 296.539L606.295 282.016Z" fill="#F2F2F2"/>
<path fill-rule="evenodd" clip-rule="evenodd" d="M593.375 312.733L580.496 309.73L604.868 324.253L617.747 327.256L593.375 312.733Z" fill="#F2F2F2"/>
<path fill-rule="evenodd" clip-rule="evenodd" d="M580.496 309.73L605.871 249.398L630.243 263.921L604.868 324.253L580.496 309.73Z" fill="#F2F2F2"/>
<path fill-rule="evenodd" clip-rule="evenodd" d="M605.87 249.398L615.529 251.651L639.902 266.173L630.242 263.921L605.87 249.398Z" fill="#F2F2F2"/>
<path fill-rule="evenodd" clip-rule="evenodd" d="M615.53 251.651L613.187 262.268L637.559 276.79L639.903 266.174L615.53 251.651Z" fill="#F2F2F2"/>
<path fill-rule="evenodd" clip-rule="evenodd" d="M613.187 262.268L613.83 262.418L638.203 276.941L637.559 276.79L613.187 262.268Z" fill="#F2F2F2"/>
<path fill-rule="evenodd" clip-rule="evenodd" d="M630.483 253.924L654.856 268.447L630.483 253.924Z" fill="#F2F2F2"/>
<path fill-rule="evenodd" clip-rule="evenodd" d="M665.607 296.329L689.98 310.852L665.607 296.329Z" fill="#F2F2F2"/>
<path fill-rule="evenodd" clip-rule="evenodd" d="M637.836 289.854L662.208 304.377L637.836 289.854Z" fill="#F2F2F2"/>
<path fill-rule="evenodd" clip-rule="evenodd" d="M715.793 274.3L708.24 289.526L732.613 304.048L740.165 288.823L715.793 274.3Z" fill="#F2F2F2"/>
<path fill-rule="evenodd" clip-rule="evenodd" d="M687.685 300.991L674.766 331.71L699.138 346.233L712.058 315.514L687.685 300.991Z" fill="#F2F2F2"/>
<path fill-rule="evenodd" clip-rule="evenodd" d="M674.766 331.71L661.887 328.707L686.259 343.23L699.138 346.233L674.766 331.71Z" fill="#F2F2F2"/>
<path fill-rule="evenodd" clip-rule="evenodd" d="M661.887 328.708L687.261 268.376L711.633 282.899L686.259 343.231L661.887 328.708Z" fill="#F2F2F2"/>
<path fill-rule="evenodd" clip-rule="evenodd" d="M687.261 268.376L696.92 270.628L721.292 285.151L711.633 282.899L687.261 268.376Z" fill="#F2F2F2"/>
<path fill-rule="evenodd" clip-rule="evenodd" d="M696.92 270.628L694.576 281.244L718.949 295.767L721.292 285.151L696.92 270.628Z" fill="#F2F2F2"/>
<path fill-rule="evenodd" clip-rule="evenodd" d="M694.576 281.244L695.22 281.394L719.592 295.917L718.949 295.767L694.576 281.244Z" fill="#F2F2F2"/>
<path fill-rule="evenodd" clip-rule="evenodd" d="M711.874 272.901L736.246 287.424L711.874 272.901Z" fill="#F2F2F2"/>
<path fill-rule="evenodd" clip-rule="evenodd" d="M595.33 245.728C596.028 245.89 596.763 246.102 597.537 246.364L621.91 260.886C621.136 260.625 620.4 260.413 619.702 260.25L595.33 245.728Z" fill="#F2F2F2"/>
<path fill-rule="evenodd" clip-rule="evenodd" d="M597.537 246.364C598.187 246.584 598.694 246.798 599.057 247.008L623.43 261.531C623.066 261.321 622.56 261.107 621.909 260.887L597.537 246.364Z" fill="#F2F2F2"/>
<path fill-rule="evenodd" clip-rule="evenodd" d="M599.058 247.008C599.127 247.048 599.191 247.088 599.249 247.127L623.622 261.65C623.563 261.61 623.499 261.571 623.43 261.531L599.058 247.008Z" fill="#F2F2F2"/>
<path fill-rule="evenodd" clip-rule="evenodd" d="M591.696 262.354C591.652 262.324 591.606 262.294 591.558 262.265L615.93 276.788C615.978 276.817 616.025 276.847 616.069 276.876L591.696 262.354Z" fill="#F2F2F2"/>
<path fill-rule="evenodd" clip-rule="evenodd" d="M591.558 262.264C591.203 262.047 590.732 261.835 590.146 261.627L614.518 276.15C615.105 276.358 615.575 276.57 615.93 276.787L591.558 262.264Z" fill="#F2F2F2"/>
<path fill-rule="evenodd" clip-rule="evenodd" d="M590.146 261.628C589.511 261.318 588.737 261.056 587.824 260.844L612.197 275.367C613.109 275.579 613.883 275.841 614.518 276.151L590.146 261.628Z" fill="#F2F2F2"/>
<path fill-rule="evenodd" clip-rule="evenodd" d="M587.823 260.844C586.643 260.568 585.311 260.581 583.829 260.883L608.201 275.406C609.684 275.104 611.015 275.091 612.195 275.366L587.823 260.844Z" fill="#F2F2F2"/>
<path fill-rule="evenodd" clip-rule="evenodd" d="M583.83 260.883C582.433 261.123 580.976 261.714 579.461 262.655L603.833 277.178C605.349 276.237 606.805 275.646 608.202 275.406L583.83 260.883Z" fill="#F2F2F2"/>
<path fill-rule="evenodd" clip-rule="evenodd" d="M579.46 262.655C577.998 263.609 576.527 265.005 575.047 266.844L599.419 281.367C600.9 279.528 602.371 278.132 603.832 277.178L579.46 262.655Z" fill="#F2F2F2"/>
<path fill-rule="evenodd" clip-rule="evenodd" d="M575.047 266.843C573.651 268.621 572.349 270.946 571.141 273.819L595.513 288.342C596.721 285.469 598.023 283.144 599.419 281.366L575.047 266.843Z" fill="#F2F2F2"/>
<path fill-rule="evenodd" clip-rule="evenodd" d="M578.677 254.221C580.349 252.346 582.132 250.699 584.025 249.28L608.398 263.803C606.504 265.222 604.721 266.869 603.049 268.744L578.677 254.221Z" fill="#F2F2F2"/>
<path fill-rule="evenodd" clip-rule="evenodd" d="M584.024 249.28C585.918 247.861 587.832 246.811 589.769 246.13L614.141 260.653C612.205 261.334 610.29 262.384 608.397 263.803L584.024 249.28Z" fill="#F2F2F2"/>
<path fill-rule="evenodd" clip-rule="evenodd" d="M589.77 246.13C591.76 245.461 593.613 245.328 595.33 245.728L619.703 260.251C617.986 259.85 616.132 259.984 614.142 260.653L589.77 246.13Z" fill="#F2F2F2"/>
<path fill-rule="evenodd" clip-rule="evenodd" d="M630.483 253.924C631.181 254.087 631.917 254.299 632.691 254.56L657.063 269.083C656.289 268.822 655.554 268.609 654.856 268.447L630.483 253.924Z" fill="#F2F2F2"/>
<path fill-rule="evenodd" clip-rule="evenodd" d="M632.69 254.561C633.341 254.78 633.847 254.995 634.211 255.204L658.583 269.727C658.22 269.518 657.713 269.303 657.063 269.083L632.69 254.561Z" fill="#F2F2F2"/>
<path fill-rule="evenodd" clip-rule="evenodd" d="M634.211 255.204C634.28 255.244 634.344 255.284 634.403 255.323L658.775 269.846C658.716 269.807 658.652 269.767 658.583 269.727L634.211 255.204Z" fill="#F2F2F2"/>
<path fill-rule="evenodd" clip-rule="evenodd" d="M626.85 270.549C626.806 270.519 626.759 270.489 626.711 270.46L651.083 284.983C651.132 285.012 651.178 285.042 651.222 285.072L626.85 270.549Z" fill="#F2F2F2"/>
<path fill-rule="evenodd" clip-rule="evenodd" d="M626.711 270.46C626.356 270.243 625.886 270.031 625.299 269.823L649.671 284.346C650.258 284.554 650.729 284.766 651.083 284.983L626.711 270.46Z" fill="#F2F2F2"/>
<path fill-rule="evenodd" clip-rule="evenodd" d="M625.299 269.823C624.664 269.513 623.89 269.252 622.978 269.039L647.35 283.562C648.262 283.775 649.036 284.036 649.672 284.346L625.299 269.823Z" fill="#F2F2F2"/>
<path fill-rule="evenodd" clip-rule="evenodd" d="M622.976 269.039C621.796 268.764 620.465 268.777 618.982 269.078L643.355 283.601C644.837 283.3 646.168 283.287 647.349 283.562L622.976 269.039Z" fill="#F2F2F2"/>
<path fill-rule="evenodd" clip-rule="evenodd" d="M618.982 269.079C617.585 269.319 616.129 269.91 614.613 270.851L638.986 285.374C640.501 284.433 641.957 283.842 643.355 283.602L618.982 269.079Z" fill="#F2F2F2"/>
<path fill-rule="evenodd" clip-rule="evenodd" d="M614.613 270.851C613.152 271.804 611.681 273.2 610.2 275.039L634.573 289.562C636.053 287.723 637.524 286.327 638.986 285.373L614.613 270.851Z" fill="#F2F2F2"/>
<path fill-rule="evenodd" clip-rule="evenodd" d="M610.2 275.039C608.804 276.817 607.502 279.142 606.294 282.015L630.666 296.538C631.875 293.665 633.177 291.34 634.572 289.562L610.2 275.039Z" fill="#F2F2F2"/>
<path fill-rule="evenodd" clip-rule="evenodd" d="M613.83 262.418C615.502 260.543 617.285 258.896 619.179 257.477L643.551 271.999C641.658 273.419 639.875 275.066 638.202 276.94L613.83 262.418Z" fill="#F2F2F2"/>
<path fill-rule="evenodd" clip-rule="evenodd" d="M619.178 257.476C621.071 256.057 622.986 255.007 624.922 254.326L649.294 268.849C647.358 269.53 645.443 270.58 643.55 271.999L619.178 257.476Z" fill="#F2F2F2"/>
<path fill-rule="evenodd" clip-rule="evenodd" d="M624.923 254.326C626.913 253.658 628.767 253.524 630.484 253.924L654.856 268.447C653.139 268.047 651.285 268.181 649.295 268.849L624.923 254.326Z" fill="#F2F2F2"/>
<path fill-rule="evenodd" clip-rule="evenodd" d="M665.607 296.329C663.5 301.338 661.143 305.682 658.535 309.362L682.907 323.884C685.516 320.205 687.873 315.861 689.98 310.852L665.607 296.329Z" fill="#F2F2F2"/>
<path fill-rule="evenodd" clip-rule="evenodd" d="M658.535 309.362C655.981 313.054 653.245 316.056 650.328 318.369L674.7 332.892C677.618 330.579 680.353 327.577 682.908 323.885L658.535 309.362Z" fill="#F2F2F2"/>
<path fill-rule="evenodd" clip-rule="evenodd" d="M650.328 318.368C647.442 320.607 644.416 322.126 641.252 322.925L665.624 337.448C668.789 336.649 671.814 335.13 674.7 332.891L650.328 318.368Z" fill="#F2F2F2"/>
<path fill-rule="evenodd" clip-rule="evenodd" d="M641.251 322.926C638.171 323.664 635.048 323.664 631.882 322.926L656.254 337.449C659.42 338.187 662.543 338.187 665.623 337.449L641.251 322.926Z" fill="#F2F2F2"/>
<path fill-rule="evenodd" clip-rule="evenodd" d="M631.883 322.925C630.23 322.54 628.732 321.962 627.389 321.192L651.761 335.715C653.104 336.485 654.602 337.063 656.255 337.448L631.883 322.925Z" fill="#F2F2F2"/>
<path fill-rule="evenodd" clip-rule="evenodd" d="M627.389 321.193C626.334 320.588 625.374 319.865 624.51 319.022L648.882 333.545C649.746 334.388 650.706 335.111 651.762 335.716L627.389 321.193Z" fill="#F2F2F2"/>
<path fill-rule="evenodd" clip-rule="evenodd" d="M624.509 319.022C622.575 317.035 621.254 314.502 620.545 311.425L644.917 325.948C645.626 329.025 646.948 331.558 648.881 333.545L624.509 319.022Z" fill="#F2F2F2"/>
<path fill-rule="evenodd" clip-rule="evenodd" d="M620.545 311.425C619.921 308.286 619.92 304.646 620.542 300.504L644.915 315.027C644.292 319.169 644.293 322.809 644.918 325.948L620.545 311.425Z" fill="#F2F2F2"/>
<path fill-rule="evenodd" clip-rule="evenodd" d="M620.542 300.504C621.218 296.374 622.61 291.805 624.716 286.796L649.089 301.319C646.982 306.328 645.591 310.897 644.914 315.027L620.542 300.504Z" fill="#F2F2F2"/>
<path fill-rule="evenodd" clip-rule="evenodd" d="M624.717 286.796C627.536 280.093 630.738 274.651 634.323 270.472L658.695 284.995C655.11 289.174 651.908 294.616 649.089 301.319L624.717 286.796Z" fill="#F2F2F2"/>
<path fill-rule="evenodd" clip-rule="evenodd" d="M634.321 270.471C637.937 266.218 641.785 263.232 645.866 261.515L670.239 276.038C666.157 277.755 662.309 280.741 658.694 284.994L634.321 270.471Z" fill="#F2F2F2"/>
<path fill-rule="evenodd" clip-rule="evenodd" d="M645.867 261.515C649.948 259.797 654.135 259.439 658.429 260.439L682.801 274.962C678.508 273.961 674.321 274.32 670.24 276.038L645.867 261.515Z" fill="#F2F2F2"/>
<path fill-rule="evenodd" clip-rule="evenodd" d="M658.428 260.439C660.016 260.81 661.445 261.357 662.716 262.08L687.088 276.603C685.818 275.879 684.388 275.333 682.8 274.962L658.428 260.439Z" fill="#F2F2F2"/>
<path fill-rule="evenodd" clip-rule="evenodd" d="M662.717 262.08C664.622 263.165 666.17 264.647 667.359 266.526L691.732 281.049C690.542 279.17 688.995 277.688 687.089 276.603L662.717 262.08Z" fill="#F2F2F2"/>
<path fill-rule="evenodd" clip-rule="evenodd" d="M667.358 266.526C669.395 269.67 670.296 273.763 670.061 278.804L694.433 293.327C694.668 288.286 693.767 284.193 691.731 281.049L667.358 266.526Z" fill="#F2F2F2"/>
<path fill-rule="evenodd" clip-rule="evenodd" d="M670.062 278.804C669.911 283.784 668.427 289.626 665.607 296.329L689.98 310.852C692.799 304.149 694.284 298.307 694.434 293.327L670.062 278.804Z" fill="#F2F2F2"/>
<path fill-rule="evenodd" clip-rule="evenodd" d="M637.837 289.854C636.164 293.832 634.995 297.241 634.332 300.079L658.704 314.602C659.368 311.764 660.536 308.355 662.209 304.377L637.837 289.854Z" fill="#F2F2F2"/>
<path fill-rule="evenodd" clip-rule="evenodd" d="M634.332 300.079C633.753 302.856 633.706 305.07 634.191 306.72L658.563 321.242C658.078 319.593 658.125 317.379 658.704 314.602L634.332 300.079Z" fill="#F2F2F2"/>
<path fill-rule="evenodd" clip-rule="evenodd" d="M634.191 306.72C634.556 307.737 635.155 308.51 635.99 309.04L660.362 323.563C659.527 323.033 658.928 322.259 658.564 321.243L634.191 306.72Z" fill="#F2F2F2"/>
<path fill-rule="evenodd" clip-rule="evenodd" d="M635.989 309.039C636.459 309.337 637.002 309.558 637.621 309.702L661.993 324.225C661.375 324.081 660.831 323.86 660.362 323.562L635.989 309.039Z" fill="#F2F2F2"/>
<path fill-rule="evenodd" clip-rule="evenodd" d="M637.621 309.703C639.392 310.115 641.066 309.778 642.643 308.689L667.016 323.212C665.438 324.301 663.764 324.638 661.993 324.225L637.621 309.703Z" fill="#F2F2F2"/>
<path fill-rule="evenodd" clip-rule="evenodd" d="M642.643 308.69C644.304 307.541 645.935 305.697 647.533 303.157L671.905 317.68C670.307 320.219 668.677 322.064 667.015 323.213L642.643 308.69Z" fill="#F2F2F2"/>
<path fill-rule="evenodd" clip-rule="evenodd" d="M647.533 303.157C649.162 300.544 650.814 297.248 652.487 293.271L676.859 307.793C675.186 311.771 673.535 315.067 671.906 317.68L647.533 303.157Z" fill="#F2F2F2"/>
<path fill-rule="evenodd" clip-rule="evenodd" d="M652.486 293.27C654.159 289.292 655.312 285.921 655.944 283.156L680.317 297.679C679.684 300.444 678.532 303.815 676.859 307.793L652.486 293.27Z" fill="#F2F2F2"/>
<path fill-rule="evenodd" clip-rule="evenodd" d="M655.945 283.157C656.578 280.392 656.609 278.216 656.04 276.627L680.412 291.15C680.982 292.739 680.95 294.915 680.318 297.68L655.945 283.157Z" fill="#F2F2F2"/>
<path fill-rule="evenodd" clip-rule="evenodd" d="M656.039 276.627C655.709 275.618 655.133 274.85 654.311 274.323L678.683 288.846C679.505 289.373 680.081 290.141 680.411 291.15L656.039 276.627Z" fill="#F2F2F2"/>
<path fill-rule="evenodd" clip-rule="evenodd" d="M654.311 274.323C653.849 274.027 653.309 273.806 652.69 273.662L677.063 288.185C677.681 288.329 678.221 288.549 678.684 288.846L654.311 274.323Z" fill="#F2F2F2"/>
<path fill-rule="evenodd" clip-rule="evenodd" d="M652.69 273.662C650.061 273.049 647.548 274.121 645.15 276.879L669.523 291.402C671.92 288.644 674.433 287.572 677.063 288.185L652.69 273.662Z" fill="#F2F2F2"/>
<path fill-rule="evenodd" clip-rule="evenodd" d="M645.15 276.879C642.783 279.563 640.345 283.888 637.836 289.855L662.208 304.378C664.718 298.411 667.156 294.086 669.522 291.402L645.15 276.879Z" fill="#F2F2F2"/>
<path fill-rule="evenodd" clip-rule="evenodd" d="M711.874 272.901C712.572 273.064 713.307 273.276 714.081 273.537L738.454 288.06C737.68 287.799 736.944 287.587 736.246 287.424L711.874 272.901Z" fill="#F2F2F2"/>
<path fill-rule="evenodd" clip-rule="evenodd" d="M714.081 273.537C714.731 273.757 715.238 273.971 715.601 274.181L739.973 288.704C739.61 288.494 739.104 288.279 738.453 288.06L714.081 273.537Z" fill="#F2F2F2"/>
<path fill-rule="evenodd" clip-rule="evenodd" d="M715.601 274.181C715.67 274.221 715.734 274.26 715.793 274.3L740.165 288.823C740.106 288.783 740.042 288.744 739.973 288.704L715.601 274.181Z" fill="#F2F2F2"/>
<path fill-rule="evenodd" clip-rule="evenodd" d="M708.24 289.525C708.196 289.496 708.15 289.466 708.102 289.437L732.474 303.959C732.522 303.989 732.569 304.019 732.613 304.048L708.24 289.525Z" fill="#F2F2F2"/>
<path fill-rule="evenodd" clip-rule="evenodd" d="M708.102 289.437C707.747 289.22 707.276 289.008 706.689 288.8L731.062 303.323C731.648 303.531 732.119 303.743 732.474 303.959L708.102 289.437Z" fill="#F2F2F2"/>
<path fill-rule="evenodd" clip-rule="evenodd" d="M706.689 288.8C706.053 288.49 705.279 288.228 704.367 288.016L728.74 302.539C729.652 302.751 730.426 303.012 731.061 303.323L706.689 288.8Z" fill="#F2F2F2"/>
<path fill-rule="evenodd" clip-rule="evenodd" d="M704.367 288.016C703.186 287.741 701.855 287.754 700.373 288.056L724.745 302.579C726.227 302.277 727.559 302.264 728.739 302.539L704.367 288.016Z" fill="#F2F2F2"/>
<path fill-rule="evenodd" clip-rule="evenodd" d="M700.374 288.056C698.976 288.296 697.52 288.887 696.005 289.828L720.377 304.351C721.892 303.41 723.349 302.819 724.746 302.579L700.374 288.056Z" fill="#F2F2F2"/>
<path fill-rule="evenodd" clip-rule="evenodd" d="M696.004 289.827C694.542 290.78 693.071 292.177 691.591 294.016L715.963 308.538C717.444 306.7 718.915 305.303 720.376 304.35L696.004 289.827Z" fill="#F2F2F2"/>
<path fill-rule="evenodd" clip-rule="evenodd" d="M691.592 294.016C690.196 295.793 688.894 298.119 687.686 300.992L712.058 315.514C713.266 312.642 714.568 310.316 715.964 308.539L691.592 294.016Z" fill="#F2F2F2"/>
<path fill-rule="evenodd" clip-rule="evenodd" d="M695.221 281.394C696.893 279.519 698.676 277.872 700.569 276.453L724.941 290.976C723.048 292.395 721.265 294.042 719.593 295.917L695.221 281.394Z" fill="#F2F2F2"/>
<path fill-rule="evenodd" clip-rule="evenodd" d="M700.568 276.453C702.461 275.034 704.376 273.984 706.313 273.303L730.685 287.826C728.748 288.507 726.834 289.557 724.941 290.976L700.568 276.453Z" fill="#F2F2F2"/>
<path fill-rule="evenodd" clip-rule="evenodd" d="M706.313 273.303C708.303 272.634 710.157 272.5 711.874 272.901L736.247 287.424C734.529 287.023 732.676 287.157 730.686 287.826L706.313 273.303Z" fill="#F2F2F2"/>
<path d="M535.554 299.252L504 291.895L537.182 213L568.736 220.357L562.973 234.059L544.459 229.742L537.163 247.09L554.389 251.106L548.626 264.808L531.4 260.792L522.849 281.124L541.363 285.44L535.554 299.252ZM595.33 245.728C596.028 245.891 596.763 246.103 597.537 246.364C598.311 246.625 598.882 246.88 599.249 247.127L591.697 262.353C591.329 262.105 590.812 261.864 590.146 261.627C589.51 261.317 588.736 261.056 587.824 260.843C586.643 260.568 585.312 260.581 583.83 260.883C582.432 261.123 580.976 261.714 579.461 262.655C577.999 263.608 576.528 265.004 575.047 266.843C573.652 268.621 572.349 270.946 571.141 273.819L558.222 304.537L545.343 301.535L570.717 241.203L580.376 243.455L578.033 254.071L578.677 254.221C580.349 252.346 582.132 250.699 584.025 249.28C585.918 247.861 587.833 246.811 589.769 246.13C591.759 245.462 593.613 245.328 595.33 245.728ZM630.483 253.924C631.181 254.087 631.917 254.299 632.691 254.56C633.465 254.821 634.035 255.076 634.403 255.323L626.85 270.549C626.483 270.302 625.966 270.06 625.299 269.823C624.663 269.513 623.889 269.252 622.977 269.039C621.797 268.764 620.465 268.777 618.983 269.079C617.586 269.319 616.129 269.91 614.614 270.851C613.152 271.804 611.681 273.2 610.201 275.039C608.805 276.817 607.503 279.142 606.294 282.015L593.375 312.734L580.496 309.731L605.87 249.399L615.53 251.651L613.186 262.267L613.83 262.417C615.502 260.543 617.285 258.896 619.178 257.476C621.072 256.057 622.986 255.007 624.922 254.326C626.913 253.658 628.766 253.524 630.483 253.924ZM665.607 296.329C663.5 301.339 661.143 305.683 658.535 309.362C655.98 313.054 653.245 316.056 650.328 318.368C647.441 320.607 644.416 322.127 641.252 322.925C638.172 323.663 635.049 323.663 631.883 322.925C628.931 322.237 626.473 320.936 624.509 319.022C622.575 317.034 621.254 314.502 620.545 311.424C619.92 308.286 619.919 304.646 620.542 300.504C621.218 296.374 622.609 291.805 624.716 286.796C627.535 280.092 630.737 274.651 634.322 270.471C637.937 266.218 641.786 263.233 645.867 261.515C649.948 259.797 654.135 259.439 658.428 260.44C662.399 261.365 665.376 263.394 667.359 266.526C669.395 269.67 670.296 273.763 670.061 278.804C669.911 283.784 668.426 289.626 665.607 296.329ZM637.837 289.855C636.164 293.833 634.995 297.241 634.332 300.079C633.753 302.856 633.706 305.069 634.191 306.719C634.76 308.308 635.903 309.302 637.62 309.703C639.391 310.116 641.065 309.778 642.643 308.69C644.304 307.541 645.935 305.696 647.533 303.157C649.162 300.544 650.814 297.248 652.487 293.27C654.16 289.292 655.312 285.921 655.945 283.157C656.577 280.392 656.609 278.215 656.039 276.627C655.524 275.05 654.407 274.062 652.69 273.662C650.061 273.049 647.548 274.121 645.15 276.879C642.784 279.562 640.346 283.888 637.837 289.855ZM711.874 272.901C712.571 273.063 713.307 273.275 714.081 273.537C714.855 273.798 715.426 274.052 715.793 274.3L708.24 289.526C707.873 289.278 707.356 289.036 706.689 288.8C706.054 288.49 705.28 288.229 704.367 288.016C703.187 287.741 701.855 287.754 700.373 288.055C698.976 288.296 697.519 288.887 696.004 289.827C694.543 290.781 693.072 292.177 691.591 294.016C690.195 295.793 688.893 298.119 687.685 300.992L674.765 331.71L661.886 328.707L687.261 268.375L696.92 270.628L694.576 281.244L695.22 281.394C696.893 279.519 698.675 277.872 700.569 276.453C702.462 275.034 704.376 273.984 706.313 273.303C708.303 272.634 710.156 272.5 711.874 272.901Z" fill="black"/>
</g>
<g filter="url(#filter1_d_786_1685)">
<path fill-rule="evenodd" clip-rule="evenodd" d="M111.064 306.163L104.029 307.803L76.3682 324.286L83.4026 322.646L111.064 306.163Z" fill="#F2F2F2"/>
<path fill-rule="evenodd" clip-rule="evenodd" d="M104.029 307.804L111.835 326.364L84.1743 342.847L76.3682 324.286L104.029 307.804Z" fill="#F2F2F2"/>
<path fill-rule="evenodd" clip-rule="evenodd" d="M111.837 326.364L97.3114 329.751L69.6504 346.234L84.176 342.847L111.837 326.364Z" fill="#F2F2F2"/>
<path fill-rule="evenodd" clip-rule="evenodd" d="M97.31 329.751L89.5038 311.19L61.8428 327.673L69.6489 346.233L97.31 329.751Z" fill="#F2F2F2"/>
<path fill-rule="evenodd" clip-rule="evenodd" d="M89.5047 311.19L64.1991 317.091L36.5381 333.573L61.8436 327.673L89.5047 311.19Z" fill="#F2F2F2"/>
<path fill-rule="evenodd" clip-rule="evenodd" d="M64.1992 317.091L58.6611 303.923L31 320.405L36.5381 333.573L64.1992 317.091Z" fill="#F2F2F2"/>
<path fill-rule="evenodd" clip-rule="evenodd" d="M58.6611 303.922L60.5651 239.996L32.904 256.479L31 320.405L58.6611 303.922Z" fill="#F2F2F2"/>
<path fill-rule="evenodd" clip-rule="evenodd" d="M60.5654 239.997L74.1774 236.823L46.5163 253.306L32.9043 256.48L60.5654 239.997Z" fill="#F2F2F2"/>
<path fill-rule="evenodd" clip-rule="evenodd" d="M74.1767 236.823L97.8589 293.131L70.1978 309.614L46.5156 253.306L74.1767 236.823Z" fill="#F2F2F2"/>
<path fill-rule="evenodd" clip-rule="evenodd" d="M97.8583 293.13L104.893 291.49L77.2317 307.973L70.1973 309.613L97.8583 293.13Z" fill="#F2F2F2"/>
<path fill-rule="evenodd" clip-rule="evenodd" d="M104.893 291.49L111.065 306.163L83.4035 322.646L77.2324 307.973L104.893 291.49Z" fill="#F2F2F2"/>
<path fill-rule="evenodd" clip-rule="evenodd" d="M111.064 306.163L83.4033 322.646L111.064 306.163Z" fill="#F2F2F2"/>
<path fill-rule="evenodd" clip-rule="evenodd" d="M69.2325 261.798L68.8671 261.883L41.2061 278.366L41.5715 278.28L69.2325 261.798Z" fill="#F2F2F2"/>
<path fill-rule="evenodd" clip-rule="evenodd" d="M69.6015 272.453L70.8179 299.435L43.1569 315.918L41.9404 288.936L69.6015 272.453Z" fill="#F2F2F2"/>
<path fill-rule="evenodd" clip-rule="evenodd" d="M70.8173 299.436L83.333 296.518L55.672 313L43.1562 315.918L70.8173 299.436Z" fill="#F2F2F2"/>
<path fill-rule="evenodd" clip-rule="evenodd" d="M83.3332 296.518L76.9511 281.344L49.29 297.826L55.6721 313.001L83.3332 296.518Z" fill="#F2F2F2"/>
<path fill-rule="evenodd" clip-rule="evenodd" d="M76.9511 281.344L49.29 297.826L76.9511 281.344Z" fill="#F2F2F2"/>
<path fill-rule="evenodd" clip-rule="evenodd" d="M148.283 268.705L120.622 285.188L148.283 268.705Z" fill="#F2F2F2"/>
<path fill-rule="evenodd" clip-rule="evenodd" d="M119.415 275.437L91.7539 291.919L119.415 275.437Z" fill="#F2F2F2"/>
<path fill-rule="evenodd" clip-rule="evenodd" d="M211.02 282.858L203.985 284.498L176.324 300.981L183.359 299.341L211.02 282.858Z" fill="#F2F2F2"/>
<path fill-rule="evenodd" clip-rule="evenodd" d="M203.985 284.498L211.791 303.058L184.13 319.541L176.324 300.981L203.985 284.498Z" fill="#F2F2F2"/>
<path fill-rule="evenodd" clip-rule="evenodd" d="M211.791 303.059L197.266 306.445L169.604 322.928L184.13 319.541L211.791 303.059Z" fill="#F2F2F2"/>
<path fill-rule="evenodd" clip-rule="evenodd" d="M197.266 306.445L189.46 287.885L161.799 304.367L169.605 322.928L197.266 306.445Z" fill="#F2F2F2"/>
<path fill-rule="evenodd" clip-rule="evenodd" d="M189.461 287.885L164.155 293.785L136.494 310.267L161.8 304.367L189.461 287.885Z" fill="#F2F2F2"/>
<path fill-rule="evenodd" clip-rule="evenodd" d="M164.154 293.785L158.616 280.617L130.955 297.1L136.493 310.268L164.154 293.785Z" fill="#F2F2F2"/>
<path fill-rule="evenodd" clip-rule="evenodd" d="M158.616 280.618L160.52 216.691L132.859 233.174L130.955 297.1L158.616 280.618Z" fill="#F2F2F2"/>
<path fill-rule="evenodd" clip-rule="evenodd" d="M160.521 216.691L174.133 213.518L146.472 230L132.86 233.174L160.521 216.691Z" fill="#F2F2F2"/>
<path fill-rule="evenodd" clip-rule="evenodd" d="M174.133 213.518L197.815 269.826L170.154 286.308L146.472 230L174.133 213.518Z" fill="#F2F2F2"/>
<path fill-rule="evenodd" clip-rule="evenodd" d="M197.814 269.826L204.849 268.186L177.188 284.668L170.153 286.308L197.814 269.826Z" fill="#F2F2F2"/>
<path fill-rule="evenodd" clip-rule="evenodd" d="M204.85 268.186L211.021 282.858L183.36 299.341L177.188 284.668L204.85 268.186Z" fill="#F2F2F2"/>
<path fill-rule="evenodd" clip-rule="evenodd" d="M211.02 282.858L183.359 299.341L211.02 282.858Z" fill="#F2F2F2"/>
<path fill-rule="evenodd" clip-rule="evenodd" d="M169.189 238.493L168.823 238.578L141.162 255.061L141.528 254.976L169.189 238.493Z" fill="#F2F2F2"/>
<path fill-rule="evenodd" clip-rule="evenodd" d="M169.558 249.148L170.774 276.131L143.113 292.613L141.896 265.631L169.558 249.148Z" fill="#F2F2F2"/>
<path fill-rule="evenodd" clip-rule="evenodd" d="M170.773 276.131L183.289 273.213L155.628 289.695L143.112 292.614L170.773 276.131Z" fill="#F2F2F2"/>
<path fill-rule="evenodd" clip-rule="evenodd" d="M183.289 273.212L176.907 258.038L149.246 274.521L155.628 289.695L183.289 273.212Z" fill="#F2F2F2"/>
<path fill-rule="evenodd" clip-rule="evenodd" d="M176.907 258.038L149.246 274.521L176.907 258.038Z" fill="#F2F2F2"/>
<path fill-rule="evenodd" clip-rule="evenodd" d="M76.9515 281.343C76.3537 279.922 75.6505 278.25 74.8417 276.327L47.1807 292.81C47.9895 294.733 48.6926 296.405 49.2904 297.826L76.9515 281.343Z" fill="#F2F2F2"/>
<path fill-rule="evenodd" clip-rule="evenodd" d="M74.8411 276.327C74.0583 274.307 73.2928 272.328 72.5448 270.391L44.8838 286.873C45.6318 288.81 46.3972 290.789 47.1801 292.81L74.8411 276.327Z" fill="#F2F2F2"/>
<path fill-rule="evenodd" clip-rule="evenodd" d="M72.5461 270.39C71.7633 268.369 71.0857 266.599 70.5136 265.08L42.8525 281.563C43.4247 283.082 44.1023 284.852 44.8851 286.872L72.5461 270.39Z" fill="#F2F2F2"/>
<path fill-rule="evenodd" clip-rule="evenodd" d="M70.5123 265.08C69.9054 263.477 69.4784 262.383 69.2323 261.798L41.5713 278.28C41.8174 278.866 42.2443 279.96 42.8513 281.562L70.5123 265.08Z" fill="#F2F2F2"/>
<path fill-rule="evenodd" clip-rule="evenodd" d="M68.8671 261.884C69.0223 263.684 69.1598 265.442 69.2797 267.158L41.6187 283.641C41.4988 281.925 41.3612 280.166 41.2061 278.366L68.8671 261.884Z" fill="#F2F2F2"/>
<path fill-rule="evenodd" clip-rule="evenodd" d="M69.2792 267.158C69.4251 268.777 69.5321 270.542 69.6005 272.454L41.9394 288.936C41.871 287.024 41.7641 285.259 41.6182 283.641L69.2792 267.158Z" fill="#F2F2F2"/>
<path fill-rule="evenodd" clip-rule="evenodd" d="M148.283 268.705C151.307 275.895 153.619 282.425 155.218 288.295L127.557 304.777C125.958 298.908 123.646 292.378 120.622 285.188L148.283 268.705Z" fill="#F2F2F2"/>
<path fill-rule="evenodd" clip-rule="evenodd" d="M155.219 288.295C156.879 294.151 157.67 299.291 157.591 303.716L129.93 320.198C130.009 315.773 129.218 310.633 127.558 304.778L155.219 288.295Z" fill="#F2F2F2"/>
<path fill-rule="evenodd" clip-rule="evenodd" d="M157.591 303.716C157.477 308.057 156.49 311.592 154.628 314.321L126.967 330.804C128.828 328.075 129.816 324.54 129.93 320.198L157.591 303.716Z" fill="#F2F2F2"/>
<path fill-rule="evenodd" clip-rule="evenodd" d="M154.628 314.321C153.66 315.74 152.4 316.917 150.849 317.852L123.188 334.334C124.739 333.4 125.999 332.223 126.967 330.804L154.628 314.321Z" fill="#F2F2F2"/>
<path fill-rule="evenodd" clip-rule="evenodd" d="M150.849 317.852C149.417 318.714 147.736 319.371 145.807 319.82L118.146 336.303C120.075 335.853 121.756 335.197 123.188 334.334L150.849 317.852Z" fill="#F2F2F2"/>
<path fill-rule="evenodd" clip-rule="evenodd" d="M145.806 319.821C140.812 320.986 135.927 320.105 131.152 317.179L103.491 333.661C108.266 336.588 113.151 337.468 118.145 336.304L145.806 319.821Z" fill="#F2F2F2"/>
<path fill-rule="evenodd" clip-rule="evenodd" d="M131.152 317.178C126.377 314.252 121.787 309.539 117.381 303.038L89.7197 319.521C94.1255 326.021 98.716 330.735 103.491 333.661L131.152 317.178Z" fill="#F2F2F2"/>
<path fill-rule="evenodd" clip-rule="evenodd" d="M117.38 303.038C112.974 296.538 108.75 288.48 104.706 278.865L77.0449 295.348C81.0886 304.962 85.3134 313.02 89.7194 319.521L117.38 303.038Z" fill="#F2F2F2"/>
<path fill-rule="evenodd" clip-rule="evenodd" d="M104.706 278.866C100.627 269.167 97.8466 260.727 96.3642 253.545L68.7031 270.028C70.1855 277.21 72.9664 285.65 77.0453 295.348L104.706 278.866Z" fill="#F2F2F2"/>
<path fill-rule="evenodd" clip-rule="evenodd" d="M96.3635 253.545C94.8808 246.363 94.9495 240.564 96.5694 236.146L68.9084 252.629C67.2884 257.046 67.2198 262.846 68.7025 270.028L96.3635 253.545Z" fill="#F2F2F2"/>
<path fill-rule="evenodd" clip-rule="evenodd" d="M96.5702 236.146C97.6458 233.31 99.4624 231.129 102.02 229.602L74.359 246.084C71.8014 247.611 69.9847 249.793 68.9092 252.629L96.5702 236.146Z" fill="#F2F2F2"/>
<path fill-rule="evenodd" clip-rule="evenodd" d="M102.019 229.602C103.458 228.743 105.131 228.091 107.039 227.646L79.3777 244.129C77.4701 244.574 75.7971 245.226 74.3584 246.085L102.019 229.602Z" fill="#F2F2F2"/>
<path fill-rule="evenodd" clip-rule="evenodd" d="M107.04 227.646C112.034 226.481 116.919 227.362 121.694 230.288L94.0327 246.771C89.2575 243.845 84.3729 242.964 79.3789 244.128L107.04 227.646Z" fill="#F2F2F2"/>
<path fill-rule="evenodd" clip-rule="evenodd" d="M121.692 230.288C126.432 233.13 131.022 237.844 135.464 244.428L107.803 260.911C103.361 254.326 98.7709 249.613 94.0312 246.771L121.692 230.288Z" fill="#F2F2F2"/>
<path fill-rule="evenodd" clip-rule="evenodd" d="M135.465 244.429C139.931 250.915 144.204 259.007 148.283 268.706L120.622 285.188C116.543 275.49 112.27 267.398 107.804 260.911L135.465 244.429Z" fill="#F2F2F2"/>
<path fill-rule="evenodd" clip-rule="evenodd" d="M119.415 275.437C122.263 282.209 124.837 287.851 127.136 292.364L99.4753 308.847C97.1759 304.334 94.6021 298.691 91.7539 291.919L119.415 275.437Z" fill="#F2F2F2"/>
<path fill-rule="evenodd" clip-rule="evenodd" d="M127.136 292.364C129.461 296.78 131.633 300.037 133.653 302.137L105.992 318.619C103.972 316.52 101.8 313.262 99.4746 308.847L127.136 292.364Z" fill="#F2F2F2"/>
<path fill-rule="evenodd" clip-rule="evenodd" d="M133.653 302.136C135.638 304.152 137.544 304.947 139.371 304.521L111.71 321.003C109.883 321.429 107.977 320.634 105.992 318.618L133.653 302.136Z" fill="#F2F2F2"/>
<path fill-rule="evenodd" clip-rule="evenodd" d="M139.371 304.521C139.736 304.436 140.066 304.309 140.359 304.142L112.698 320.624C112.405 320.792 112.075 320.918 111.71 321.003L139.371 304.521Z" fill="#F2F2F2"/>
<path fill-rule="evenodd" clip-rule="evenodd" d="M140.36 304.142C141.534 303.472 142.13 302.143 142.15 300.155L114.489 316.638C114.469 318.626 113.873 319.954 112.699 320.625L140.36 304.142Z" fill="#F2F2F2"/>
<path fill-rule="evenodd" clip-rule="evenodd" d="M142.149 300.156C142.235 297.657 141.542 294.1 140.069 289.486L112.408 305.969C113.88 310.583 114.574 314.139 114.488 316.638L142.149 300.156Z" fill="#F2F2F2"/>
<path fill-rule="evenodd" clip-rule="evenodd" d="M140.07 289.486C138.623 284.774 136.458 278.99 133.575 272.135L105.914 288.617C108.797 295.473 110.962 301.257 112.409 305.969L140.07 289.486Z" fill="#F2F2F2"/>
<path fill-rule="evenodd" clip-rule="evenodd" d="M133.575 272.135C130.692 265.28 128.057 259.651 125.671 255.25L98.0098 271.733C100.396 276.134 103.031 281.762 105.914 288.618L133.575 272.135Z" fill="#F2F2F2"/>
<path fill-rule="evenodd" clip-rule="evenodd" d="M125.671 255.25C123.31 250.751 121.138 247.494 119.153 245.478L91.4922 261.96C93.4768 263.976 95.6493 267.234 98.0098 271.732L125.671 255.25Z" fill="#F2F2F2"/>
<path fill-rule="evenodd" clip-rule="evenodd" d="M119.153 245.478C117.194 243.364 115.301 242.52 113.474 242.946L85.8125 259.429C87.6396 259.003 89.5325 259.847 91.4917 261.96L119.153 245.478Z" fill="#F2F2F2"/>
<path fill-rule="evenodd" clip-rule="evenodd" d="M113.473 242.945C113.108 243.031 112.778 243.159 112.483 243.33L84.8223 259.813C85.1166 259.641 85.4465 259.513 85.812 259.428L113.473 242.945Z" fill="#F2F2F2"/>
<path fill-rule="evenodd" clip-rule="evenodd" d="M112.484 243.331C111.307 244.017 110.698 245.393 110.657 247.459L82.9961 263.941C83.0366 261.875 83.6458 260.499 84.8233 259.814L112.484 243.331Z" fill="#F2F2F2"/>
<path fill-rule="evenodd" clip-rule="evenodd" d="M110.657 247.458C110.571 249.957 111.282 253.555 112.79 258.253L85.1287 274.735C83.6211 270.038 82.9102 266.439 82.9962 263.941L110.657 247.458Z" fill="#F2F2F2"/>
<path fill-rule="evenodd" clip-rule="evenodd" d="M112.79 258.253C114.323 262.853 116.532 268.581 119.415 275.436L91.754 291.919C88.8707 285.063 86.6623 279.335 85.1289 274.736L112.79 258.253Z" fill="#F2F2F2"/>
<path fill-rule="evenodd" clip-rule="evenodd" d="M176.908 258.039C176.31 256.617 175.607 254.946 174.798 253.022L147.137 269.505C147.946 271.428 148.649 273.1 149.246 274.521L176.908 258.039Z" fill="#F2F2F2"/>
<path fill-rule="evenodd" clip-rule="evenodd" d="M174.797 253.022C174.014 251.001 173.249 249.022 172.501 247.085L144.84 263.568C145.588 265.505 146.353 267.484 147.136 269.504L174.797 253.022Z" fill="#F2F2F2"/>
<path fill-rule="evenodd" clip-rule="evenodd" d="M172.501 247.085C171.718 245.064 171.041 243.294 170.469 241.775L142.808 258.258C143.38 259.777 144.057 261.547 144.84 263.568L172.501 247.085Z" fill="#F2F2F2"/>
<path fill-rule="evenodd" clip-rule="evenodd" d="M170.468 241.775C169.861 240.172 169.434 239.078 169.188 238.493L141.527 254.976C141.773 255.561 142.2 256.655 142.807 258.258L170.468 241.775Z" fill="#F2F2F2"/>
<path fill-rule="evenodd" clip-rule="evenodd" d="M168.823 238.579C168.978 240.379 169.116 242.137 169.236 243.853L141.575 260.336C141.455 258.62 141.317 256.862 141.162 255.062L168.823 238.579Z" fill="#F2F2F2"/>
<path fill-rule="evenodd" clip-rule="evenodd" d="M169.235 243.853C169.381 245.471 169.488 247.236 169.557 249.148L141.895 265.631C141.827 263.719 141.72 261.954 141.574 260.335L169.235 243.853Z" fill="#F2F2F2"/>
<path d="M111.064 306.164L104.029 307.804L111.836 326.364L97.31 329.751L89.5038 311.19L64.1983 317.09L58.6602 303.923L60.5641 239.996L74.1762 236.823L97.8583 293.131L104.893 291.491L111.064 306.164ZM76.9507 281.343C76.3529 279.922 75.6497 278.25 74.8409 276.327C74.0581 274.306 73.2927 272.327 72.5447 270.39C71.7619 268.369 71.0842 266.599 70.5121 265.08C69.9052 263.478 69.4782 262.384 69.2321 261.798L68.8667 261.884C69.0219 263.684 69.1594 265.442 69.2793 267.158C69.4252 268.776 69.5322 270.542 69.6006 272.454L70.817 299.436L83.3328 296.518L76.9507 281.343ZM148.283 268.705C151.307 275.896 153.618 282.425 155.218 288.295C156.878 294.151 157.669 299.291 157.59 303.716C157.477 308.057 156.489 311.592 154.628 314.321C152.766 317.05 149.825 318.884 145.806 319.821C140.811 320.985 135.927 320.105 131.152 317.178C126.377 314.252 121.786 309.539 117.38 303.038C112.974 296.538 108.75 288.48 104.706 278.865C100.627 269.167 97.8462 260.727 96.3638 253.545C94.8811 246.363 94.9497 240.563 96.5697 236.146C98.2502 231.715 101.74 228.881 107.039 227.646C112.033 226.482 116.917 227.362 121.693 230.288C126.432 233.131 131.023 237.844 135.464 244.428C139.931 250.915 144.204 259.007 148.283 268.705ZM119.414 275.436C122.262 282.208 124.836 287.851 127.136 292.364C129.461 296.779 131.633 300.037 133.653 302.136C135.638 304.152 137.544 304.947 139.371 304.521C141.198 304.095 142.124 302.64 142.149 300.155C142.235 297.656 141.542 294.1 140.069 289.486C138.623 284.774 136.458 278.99 133.574 272.135C130.691 265.279 128.056 259.651 125.67 255.25C123.31 250.751 121.137 247.493 119.153 245.477C117.194 243.364 115.301 242.52 113.474 242.946C111.646 243.372 110.707 244.876 110.657 247.458C110.571 249.957 111.281 253.555 112.789 258.253C114.323 262.853 116.531 268.581 119.414 275.436ZM211.02 282.858L203.985 284.498L211.792 303.059L197.266 306.446L189.46 287.885L164.154 293.785L158.616 280.617L160.52 216.691L174.132 213.518L197.814 269.826L204.849 268.186L211.02 282.858ZM176.907 258.038C176.309 256.617 175.606 254.945 174.797 253.022C174.014 251.001 173.249 249.022 172.501 247.085C171.718 245.064 171.04 243.294 170.468 241.775C169.861 240.173 169.434 239.078 169.188 238.493L168.823 238.579C168.978 240.379 169.115 242.137 169.235 243.853C169.381 245.471 169.488 247.237 169.557 249.148L170.773 276.131L183.289 273.212L176.907 258.038Z" fill="black"/>
</g>
<path d="M99.1739 444H97.0139V428.76H91.6619V426.864H104.502V428.76H99.1739V444ZM109.01 431.112C109.01 431.416 108.994 431.728 108.962 432.048C108.946 432.368 108.922 432.656 108.89 432.912H109.034C109.306 432.464 109.65 432.096 110.066 431.808C110.482 431.52 110.946 431.304 111.458 431.16C111.97 431 112.498 430.92 113.042 430.92C114.082 430.92 114.946 431.088 115.634 431.424C116.338 431.744 116.866 432.248 117.218 432.936C117.57 433.624 117.746 434.52 117.746 435.624V444H115.658V435.768C115.658 434.728 115.426 433.952 114.962 433.44C114.498 432.928 113.77 432.672 112.778 432.672C111.818 432.672 111.066 432.856 110.522 433.224C109.978 433.576 109.586 434.104 109.346 434.808C109.122 435.496 109.01 436.344 109.01 437.352V444H106.898V425.76H109.01V431.112ZM126.802 430.896C127.906 430.896 128.85 431.136 129.634 431.616C130.434 432.096 131.042 432.776 131.458 433.656C131.89 434.52 132.106 435.536 132.106 436.704V437.976H123.298C123.33 439.432 123.698 440.544 124.402 441.312C125.122 442.064 126.122 442.44 127.402 442.44C128.218 442.44 128.938 442.368 129.562 442.224C130.202 442.064 130.858 441.84 131.53 441.552V443.4C130.874 443.688 130.226 443.896 129.586 444.024C128.946 444.168 128.186 444.24 127.306 444.24C126.09 444.24 125.01 443.992 124.066 443.496C123.138 443 122.41 442.264 121.882 441.288C121.37 440.296 121.114 439.088 121.114 437.664C121.114 436.256 121.346 435.048 121.81 434.04C122.29 433.032 122.954 432.256 123.802 431.712C124.666 431.168 125.666 430.896 126.802 430.896ZM126.778 432.624C125.77 432.624 124.97 432.952 124.378 433.608C123.802 434.248 123.458 435.144 123.346 436.296H129.898C129.898 435.56 129.786 434.92 129.562 434.376C129.338 433.832 128.994 433.408 128.53 433.104C128.082 432.784 127.498 432.624 126.778 432.624ZM147.935 430.896C149.519 430.896 150.791 431.448 151.751 432.552C152.727 433.656 153.215 435.32 153.215 437.544C153.215 439 152.991 440.232 152.543 441.24C152.111 442.232 151.495 442.984 150.695 443.496C149.911 443.992 148.983 444.24 147.911 444.24C147.255 444.24 146.671 444.152 146.159 443.976C145.647 443.8 145.207 443.576 144.839 443.304C144.487 443.016 144.183 442.704 143.927 442.368H143.783C143.815 442.64 143.847 442.984 143.879 443.4C143.911 443.816 143.927 444.176 143.927 444.48V449.76H141.815V431.136H143.543L143.831 432.888H143.927C144.183 432.52 144.487 432.184 144.839 431.88C145.207 431.576 145.639 431.336 146.135 431.16C146.647 430.984 147.247 430.896 147.935 430.896ZM147.551 432.672C146.687 432.672 145.991 432.84 145.463 433.176C144.935 433.496 144.551 433.984 144.311 434.64C144.071 435.296 143.943 436.128 143.927 437.136V437.544C143.927 438.6 144.039 439.496 144.263 440.232C144.487 440.968 144.863 441.528 145.391 441.912C145.935 442.296 146.671 442.488 147.599 442.488C148.383 442.488 149.023 442.272 149.519 441.84C150.031 441.408 150.407 440.824 150.647 440.088C150.903 439.336 151.031 438.48 151.031 437.52C151.031 436.048 150.743 434.872 150.167 433.992C149.607 433.112 148.735 432.672 147.551 432.672ZM161.553 430.92C163.121 430.92 164.281 431.264 165.033 431.952C165.785 432.64 166.161 433.736 166.161 435.24V444H164.625L164.217 442.176H164.121C163.753 442.64 163.369 443.032 162.969 443.352C162.585 443.656 162.137 443.88 161.625 444.024C161.129 444.168 160.521 444.24 159.801 444.24C159.033 444.24 158.337 444.104 157.713 443.832C157.105 443.56 156.625 443.144 156.273 442.584C155.921 442.008 155.745 441.288 155.745 440.424C155.745 439.144 156.249 438.16 157.257 437.472C158.265 436.768 159.817 436.384 161.913 436.32L164.097 436.248V435.48C164.097 434.408 163.865 433.664 163.401 433.248C162.937 432.832 162.281 432.624 161.433 432.624C160.761 432.624 160.121 432.728 159.513 432.936C158.905 433.128 158.337 433.352 157.809 433.608L157.161 432.024C157.721 431.72 158.385 431.464 159.153 431.256C159.921 431.032 160.721 430.92 161.553 430.92ZM162.177 437.784C160.577 437.848 159.465 438.104 158.841 438.552C158.233 439 157.929 439.632 157.929 440.448C157.929 441.168 158.145 441.696 158.577 442.032C159.025 442.368 159.593 442.536 160.281 442.536C161.369 442.536 162.273 442.24 162.993 441.648C163.713 441.04 164.073 440.112 164.073 438.864V437.712L162.177 437.784ZM174.794 430.896C175.642 430.896 176.402 431.056 177.074 431.376C177.762 431.696 178.346 432.184 178.826 432.84H178.946L179.234 431.136H180.914V444.216C180.914 445.432 180.706 446.448 180.29 447.264C179.874 448.096 179.242 448.72 178.394 449.136C177.546 449.552 176.466 449.76 175.154 449.76C174.226 449.76 173.37 449.688 172.586 449.544C171.818 449.416 171.13 449.216 170.522 448.944V447C170.938 447.208 171.394 447.384 171.89 447.528C172.386 447.688 172.922 447.808 173.498 447.888C174.074 447.968 174.666 448.008 175.274 448.008C176.378 448.008 177.242 447.68 177.866 447.024C178.506 446.384 178.826 445.504 178.826 444.384V443.88C178.826 443.688 178.834 443.416 178.85 443.064C178.866 442.696 178.882 442.44 178.898 442.296H178.802C178.354 442.952 177.794 443.44 177.122 443.76C176.466 444.08 175.698 444.24 174.818 444.24C173.154 444.24 171.85 443.656 170.906 442.488C169.978 441.32 169.514 439.688 169.514 437.592C169.514 436.216 169.722 435.032 170.138 434.04C170.57 433.032 171.178 432.256 171.962 431.712C172.746 431.168 173.69 430.896 174.794 430.896ZM175.082 432.672C174.362 432.672 173.746 432.864 173.234 433.248C172.738 433.632 172.354 434.192 172.082 434.928C171.826 435.664 171.698 436.56 171.698 437.616C171.698 439.2 171.986 440.416 172.562 441.264C173.154 442.096 174.01 442.512 175.13 442.512C175.786 442.512 176.346 442.432 176.81 442.272C177.274 442.096 177.658 441.832 177.962 441.48C178.266 441.112 178.49 440.648 178.634 440.088C178.778 439.528 178.85 438.864 178.85 438.096V437.592C178.85 436.424 178.714 435.48 178.442 434.76C178.186 434.04 177.778 433.512 177.218 433.176C176.658 432.84 175.946 432.672 175.082 432.672ZM190.067 430.896C191.171 430.896 192.115 431.136 192.899 431.616C193.699 432.096 194.307 432.776 194.723 433.656C195.155 434.52 195.371 435.536 195.371 436.704V437.976H186.563C186.595 439.432 186.963 440.544 187.667 441.312C188.387 442.064 189.387 442.44 190.667 442.44C191.483 442.44 192.203 442.368 192.827 442.224C193.467 442.064 194.123 441.84 194.795 441.552V443.4C194.139 443.688 193.491 443.896 192.851 444.024C192.211 444.168 191.451 444.24 190.571 444.24C189.355 444.24 188.275 443.992 187.331 443.496C186.403 443 185.675 442.264 185.147 441.288C184.635 440.296 184.379 439.088 184.379 437.664C184.379 436.256 184.611 435.048 185.075 434.04C185.555 433.032 186.219 432.256 187.067 431.712C187.931 431.168 188.931 430.896 190.067 430.896ZM190.043 432.624C189.035 432.624 188.235 432.952 187.643 433.608C187.067 434.248 186.723 435.144 186.611 436.296H193.163C193.163 435.56 193.051 434.92 192.827 434.376C192.603 433.832 192.259 433.408 191.795 433.104C191.347 432.784 190.763 432.624 190.043 432.624ZM203.065 431.136H205.321L208.105 438.456C208.265 438.888 208.409 439.304 208.537 439.704C208.681 440.104 208.809 440.496 208.921 440.88C209.033 441.248 209.121 441.608 209.185 441.96H209.281C209.377 441.56 209.529 441.04 209.737 440.4C209.945 439.744 210.161 439.088 210.385 438.432L213.001 431.136H215.281L209.737 445.776C209.433 446.576 209.073 447.272 208.657 447.864C208.257 448.472 207.761 448.936 207.169 449.256C206.593 449.592 205.889 449.76 205.057 449.76C204.673 449.76 204.337 449.736 204.049 449.688C203.761 449.656 203.513 449.616 203.305 449.568V447.888C203.481 447.92 203.689 447.952 203.929 447.984C204.185 448.016 204.449 448.032 204.721 448.032C205.217 448.032 205.641 447.936 205.993 447.744C206.361 447.568 206.673 447.304 206.929 446.952C207.185 446.616 207.401 446.216 207.577 445.752L208.249 444.048L203.065 431.136ZM228.599 437.544C228.599 438.616 228.455 439.568 228.167 440.4C227.895 441.216 227.495 441.912 226.967 442.488C226.455 443.064 225.823 443.504 225.071 443.808C224.335 444.096 223.511 444.24 222.599 444.24C221.751 444.24 220.967 444.096 220.247 443.808C219.527 443.504 218.903 443.064 218.375 442.488C217.847 441.912 217.431 441.216 217.127 440.4C216.839 439.568 216.695 438.616 216.695 437.544C216.695 436.12 216.935 434.92 217.415 433.944C217.895 432.952 218.583 432.2 219.479 431.688C220.375 431.16 221.439 430.896 222.671 430.896C223.839 430.896 224.863 431.16 225.743 431.688C226.639 432.2 227.335 432.952 227.831 433.944C228.343 434.92 228.599 436.12 228.599 437.544ZM218.879 437.544C218.879 438.552 219.007 439.432 219.263 440.184C219.535 440.92 219.951 441.488 220.511 441.888C221.071 442.288 221.783 442.488 222.647 442.488C223.511 442.488 224.223 442.288 224.783 441.888C225.343 441.488 225.751 440.92 226.007 440.184C226.279 439.432 226.415 438.552 226.415 437.544C226.415 436.52 226.279 435.648 226.007 434.928C225.735 434.208 225.319 433.656 224.759 433.272C224.215 432.872 223.503 432.672 222.623 432.672C221.311 432.672 220.359 433.104 219.767 433.968C219.175 434.832 218.879 436.024 218.879 437.544ZM242.798 431.136V444H241.07L240.758 442.296H240.662C240.39 442.744 240.038 443.112 239.606 443.4C239.174 443.688 238.702 443.896 238.19 444.024C237.678 444.168 237.142 444.24 236.582 444.24C235.558 444.24 234.694 444.08 233.99 443.76C233.302 443.424 232.782 442.912 232.43 442.224C232.078 441.536 231.902 440.648 231.902 439.56V431.136H234.038V439.416C234.038 440.44 234.27 441.208 234.734 441.72C235.198 442.232 235.918 442.488 236.894 442.488C237.854 442.488 238.606 442.312 239.15 441.96C239.71 441.592 240.102 441.064 240.326 440.376C240.566 439.672 240.686 438.824 240.686 437.832V431.136H242.798ZM259.317 430.896C259.557 430.896 259.813 430.912 260.085 430.944C260.373 430.96 260.621 430.992 260.829 431.04L260.565 432.984C260.357 432.936 260.125 432.896 259.869 432.864C259.629 432.832 259.397 432.816 259.173 432.816C258.677 432.816 258.205 432.92 257.757 433.128C257.309 433.336 256.909 433.632 256.557 434.016C256.205 434.384 255.925 434.832 255.717 435.36C255.525 435.888 255.429 436.48 255.429 437.136V444H253.317V431.136H255.045L255.285 433.488H255.381C255.653 433.008 255.981 432.576 256.365 432.192C256.749 431.792 257.189 431.48 257.685 431.256C258.181 431.016 258.725 430.896 259.317 430.896ZM267.83 430.896C268.934 430.896 269.878 431.136 270.662 431.616C271.462 432.096 272.07 432.776 272.486 433.656C272.918 434.52 273.134 435.536 273.134 436.704V437.976H264.326C264.358 439.432 264.726 440.544 265.43 441.312C266.15 442.064 267.15 442.44 268.43 442.44C269.246 442.44 269.966 442.368 270.59 442.224C271.23 442.064 271.886 441.84 272.558 441.552V443.4C271.902 443.688 271.254 443.896 270.614 444.024C269.974 444.168 269.214 444.24 268.334 444.24C267.118 444.24 266.038 443.992 265.094 443.496C264.166 443 263.438 442.264 262.91 441.288C262.398 440.296 262.142 439.088 262.142 437.664C262.142 436.256 262.374 435.048 262.838 434.04C263.318 433.032 263.982 432.256 264.83 431.712C265.694 431.168 266.694 430.896 267.83 430.896ZM267.806 432.624C266.798 432.624 265.998 432.952 265.406 433.608C264.83 434.248 264.486 435.144 264.374 436.296H270.926C270.926 435.56 270.814 434.92 270.59 434.376C270.366 433.832 270.022 433.408 269.558 433.104C269.11 432.784 268.526 432.624 267.806 432.624ZM285.077 444.264C285.077 443.976 285.085 443.64 285.101 443.256C285.117 442.872 285.149 442.544 285.197 442.272H285.053C284.685 442.816 284.173 443.28 283.517 443.664C282.877 444.048 282.045 444.24 281.021 444.24C279.469 444.24 278.205 443.688 277.229 442.584C276.269 441.464 275.789 439.8 275.789 437.592C275.789 436.12 276.013 434.888 276.461 433.896C276.909 432.904 277.533 432.16 278.333 431.664C279.133 431.152 280.053 430.896 281.093 430.896C282.101 430.896 282.925 431.088 283.565 431.472C284.205 431.856 284.717 432.328 285.101 432.888H285.197L285.509 431.136H287.189V449.76H285.077V444.264ZM281.429 442.488C282.309 442.488 283.013 442.328 283.541 442.008C284.085 441.688 284.477 441.2 284.717 440.544C284.957 439.872 285.085 439.04 285.101 438.048V437.616C285.101 435.984 284.829 434.752 284.285 433.92C283.741 433.072 282.773 432.648 281.381 432.648C280.229 432.648 279.373 433.104 278.813 434.016C278.253 434.912 277.973 436.12 277.973 437.64C277.973 439.16 278.253 440.352 278.813 441.216C279.389 442.064 280.261 442.488 281.429 442.488ZM302.126 431.136V444H300.398L300.086 442.296H299.99C299.718 442.744 299.366 443.112 298.934 443.4C298.502 443.688 298.03 443.896 297.518 444.024C297.006 444.168 296.47 444.24 295.91 444.24C294.886 444.24 294.022 444.08 293.318 443.76C292.63 443.424 292.11 442.912 291.758 442.224C291.406 441.536 291.23 440.648 291.23 439.56V431.136H293.366V439.416C293.366 440.44 293.598 441.208 294.062 441.72C294.526 442.232 295.246 442.488 296.222 442.488C297.182 442.488 297.934 442.312 298.478 441.96C299.038 441.592 299.43 441.064 299.654 440.376C299.894 439.672 300.014 438.824 300.014 437.832V431.136H302.126ZM311.278 430.896C312.382 430.896 313.326 431.136 314.11 431.616C314.91 432.096 315.518 432.776 315.934 433.656C316.366 434.52 316.582 435.536 316.582 436.704V437.976H307.774C307.806 439.432 308.174 440.544 308.878 441.312C309.598 442.064 310.598 442.44 311.878 442.44C312.694 442.44 313.414 442.368 314.038 442.224C314.678 442.064 315.334 441.84 316.006 441.552V443.4C315.35 443.688 314.702 443.896 314.062 444.024C313.422 444.168 312.662 444.24 311.782 444.24C310.566 444.24 309.486 443.992 308.542 443.496C307.614 443 306.886 442.264 306.358 441.288C305.846 440.296 305.59 439.088 305.59 437.664C305.59 436.256 305.822 435.048 306.286 434.04C306.766 433.032 307.43 432.256 308.278 431.712C309.142 431.168 310.142 430.896 311.278 430.896ZM311.254 432.624C310.246 432.624 309.446 432.952 308.854 433.608C308.278 434.248 307.934 435.144 307.822 436.296H314.374C314.374 435.56 314.262 434.92 314.038 434.376C313.814 433.832 313.47 433.408 313.006 433.104C312.558 432.784 311.974 432.624 311.254 432.624ZM328.333 440.448C328.333 441.28 328.125 441.976 327.709 442.536C327.293 443.096 326.701 443.52 325.933 443.808C325.165 444.096 324.253 444.24 323.197 444.24C322.301 444.24 321.525 444.168 320.869 444.024C320.229 443.88 319.661 443.68 319.165 443.424V441.504C319.677 441.76 320.293 442 321.013 442.224C321.749 442.432 322.493 442.536 323.245 442.536C324.317 442.536 325.093 442.368 325.573 442.032C326.053 441.68 326.293 441.216 326.293 440.64C326.293 440.32 326.205 440.032 326.029 439.776C325.853 439.52 325.533 439.264 325.069 439.008C324.621 438.752 323.973 438.464 323.125 438.144C322.293 437.824 321.581 437.504 320.989 437.184C320.397 436.864 319.941 436.48 319.621 436.032C319.301 435.584 319.141 435.008 319.141 434.304C319.141 433.216 319.581 432.376 320.461 431.784C321.357 431.192 322.525 430.896 323.965 430.896C324.749 430.896 325.477 430.976 326.149 431.136C326.837 431.28 327.477 431.488 328.069 431.76L327.349 433.44C326.997 433.28 326.621 433.144 326.221 433.032C325.837 432.904 325.445 432.808 325.045 432.744C324.645 432.664 324.237 432.624 323.821 432.624C322.957 432.624 322.293 432.768 321.829 433.056C321.381 433.328 321.157 433.704 321.157 434.184C321.157 434.536 321.261 434.84 321.469 435.096C321.677 435.336 322.021 435.576 322.501 435.816C322.997 436.04 323.653 436.312 324.469 436.632C325.285 436.936 325.981 437.248 326.557 437.568C327.133 437.888 327.573 438.28 327.877 438.744C328.181 439.192 328.333 439.76 328.333 440.448ZM335.838 442.512C336.158 442.512 336.486 442.488 336.822 442.44C337.158 442.376 337.43 442.312 337.638 442.248V443.856C337.414 443.968 337.094 444.056 336.678 444.12C336.262 444.2 335.862 444.24 335.478 444.24C334.806 444.24 334.182 444.128 333.606 443.904C333.046 443.664 332.59 443.256 332.238 442.68C331.886 442.104 331.71 441.296 331.71 440.256V432.768H329.886V431.76L331.734 430.92L332.574 428.184H333.822V431.136H337.542V432.768H333.822V440.208C333.822 440.992 334.006 441.576 334.374 441.96C334.758 442.328 335.246 442.512 335.838 442.512ZM345.281 430.896C346.385 430.896 347.329 431.136 348.113 431.616C348.913 432.096 349.521 432.776 349.937 433.656C350.369 434.52 350.585 435.536 350.585 436.704V437.976H341.777C341.809 439.432 342.177 440.544 342.881 441.312C343.601 442.064 344.601 442.44 345.881 442.44C346.697 442.44 347.417 442.368 348.041 442.224C348.681 442.064 349.337 441.84 350.009 441.552V443.4C349.353 443.688 348.705 443.896 348.065 444.024C347.425 444.168 346.665 444.24 345.785 444.24C344.569 444.24 343.489 443.992 342.545 443.496C341.617 443 340.889 442.264 340.361 441.288C339.849 440.296 339.593 439.088 339.593 437.664C339.593 436.256 339.825 435.048 340.289 434.04C340.769 433.032 341.433 432.256 342.281 431.712C343.145 431.168 344.145 430.896 345.281 430.896ZM345.257 432.624C344.249 432.624 343.449 432.952 342.857 433.608C342.281 434.248 341.937 435.144 341.825 436.296H348.377C348.377 435.56 348.265 434.92 348.041 434.376C347.817 433.832 347.473 433.408 347.009 433.104C346.561 432.784 345.977 432.624 345.257 432.624ZM358.52 444.24C356.92 444.24 355.64 443.688 354.68 442.584C353.72 441.464 353.24 439.8 353.24 437.592C353.24 435.384 353.72 433.72 354.68 432.6C355.656 431.464 356.944 430.896 358.544 430.896C359.216 430.896 359.8 430.984 360.296 431.16C360.792 431.32 361.224 431.544 361.592 431.832C361.96 432.12 362.272 432.44 362.528 432.792H362.672C362.656 432.584 362.624 432.28 362.576 431.88C362.544 431.464 362.528 431.136 362.528 430.896V425.76H364.64V444H362.936L362.624 442.272H362.528C362.272 442.64 361.96 442.976 361.592 443.28C361.224 443.568 360.784 443.8 360.272 443.976C359.776 444.152 359.192 444.24 358.52 444.24ZM358.856 442.488C360.216 442.488 361.168 442.12 361.712 441.384C362.272 440.632 362.552 439.504 362.552 438V437.616C362.552 436.016 362.288 434.792 361.76 433.944C361.232 433.08 360.256 432.648 358.832 432.648C357.696 432.648 356.84 433.104 356.264 434.016C355.704 434.912 355.424 436.12 355.424 437.64C355.424 439.176 355.704 440.368 356.264 441.216C356.84 442.064 357.704 442.488 358.856 442.488ZM377.272 431.136V444H375.16V431.136H377.272ZM376.24 426.312C376.56 426.312 376.84 426.424 377.08 426.648C377.336 426.856 377.464 427.192 377.464 427.656C377.464 428.104 377.336 428.44 377.08 428.664C376.84 428.888 376.56 429 376.24 429C375.888 429 375.592 428.888 375.352 428.664C375.112 428.44 374.992 428.104 374.992 427.656C374.992 427.192 375.112 426.856 375.352 426.648C375.592 426.424 375.888 426.312 376.24 426.312ZM389.824 440.448C389.824 441.28 389.616 441.976 389.2 442.536C388.784 443.096 388.192 443.52 387.424 443.808C386.656 444.096 385.744 444.24 384.688 444.24C383.792 444.24 383.016 444.168 382.36 444.024C381.72 443.88 381.152 443.68 380.656 443.424V441.504C381.168 441.76 381.784 442 382.504 442.224C383.24 442.432 383.984 442.536 384.736 442.536C385.808 442.536 386.584 442.368 387.064 442.032C387.544 441.68 387.784 441.216 387.784 440.64C387.784 440.32 387.696 440.032 387.52 439.776C387.344 439.52 387.024 439.264 386.56 439.008C386.112 438.752 385.464 438.464 384.616 438.144C383.784 437.824 383.072 437.504 382.48 437.184C381.888 436.864 381.432 436.48 381.112 436.032C380.792 435.584 380.632 435.008 380.632 434.304C380.632 433.216 381.072 432.376 381.952 431.784C382.848 431.192 384.016 430.896 385.456 430.896C386.24 430.896 386.968 430.976 387.64 431.136C388.328 431.28 388.968 431.488 389.56 431.76L388.84 433.44C388.488 433.28 388.112 433.144 387.712 433.032C387.328 432.904 386.936 432.808 386.536 432.744C386.136 432.664 385.728 432.624 385.312 432.624C384.448 432.624 383.784 432.768 383.32 433.056C382.872 433.328 382.648 433.704 382.648 434.184C382.648 434.536 382.752 434.84 382.96 435.096C383.168 435.336 383.512 435.576 383.992 435.816C384.488 436.04 385.144 436.312 385.96 436.632C386.776 436.936 387.472 437.248 388.048 437.568C388.624 437.888 389.064 438.28 389.368 438.744C389.672 439.192 389.824 439.76 389.824 440.448ZM404.527 444.24C403.391 444.24 402.375 444.008 401.479 443.544C400.599 443.08 399.903 442.36 399.391 441.384C398.895 440.408 398.647 439.16 398.647 437.64C398.647 436.056 398.911 434.768 399.439 433.776C399.967 432.784 400.679 432.056 401.575 431.592C402.487 431.128 403.519 430.896 404.671 430.896C405.327 430.896 405.959 430.968 406.567 431.112C407.175 431.24 407.671 431.4 408.055 431.592L407.407 433.344C407.023 433.2 406.575 433.064 406.063 432.936C405.551 432.808 405.071 432.744 404.623 432.744C403.759 432.744 403.047 432.928 402.487 433.296C401.927 433.664 401.511 434.208 401.239 434.928C400.967 435.648 400.831 436.544 400.831 437.616C400.831 438.64 400.967 439.512 401.239 440.232C401.511 440.952 401.919 441.496 402.463 441.864C403.007 442.232 403.687 442.416 404.503 442.416C405.207 442.416 405.823 442.344 406.351 442.2C406.895 442.056 407.391 441.88 407.839 441.672V443.544C407.407 443.768 406.927 443.936 406.399 444.048C405.887 444.176 405.263 444.24 404.527 444.24ZM421.75 431.136V444H420.022L419.71 442.296H419.614C419.342 442.744 418.99 443.112 418.558 443.4C418.126 443.688 417.654 443.896 417.142 444.024C416.63 444.168 416.094 444.24 415.534 444.24C414.51 444.24 413.646 444.08 412.942 443.76C412.254 443.424 411.734 442.912 411.382 442.224C411.03 441.536 410.854 440.648 410.854 439.56V431.136H412.99V439.416C412.99 440.44 413.222 441.208 413.686 441.72C414.15 442.232 414.87 442.488 415.846 442.488C416.806 442.488 417.558 442.312 418.102 441.96C418.662 441.592 419.054 441.064 419.278 440.376C419.518 439.672 419.638 438.824 419.638 437.832V431.136H421.75ZM431.934 430.896C432.174 430.896 432.43 430.912 432.702 430.944C432.99 430.96 433.238 430.992 433.446 431.04L433.182 432.984C432.974 432.936 432.742 432.896 432.486 432.864C432.246 432.832 432.014 432.816 431.79 432.816C431.294 432.816 430.822 432.92 430.374 433.128C429.926 433.336 429.526 433.632 429.174 434.016C428.822 434.384 428.542 434.832 428.334 435.36C428.142 435.888 428.046 436.48 428.046 437.136V444H425.934V431.136H427.662L427.902 433.488H427.998C428.27 433.008 428.598 432.576 428.982 432.192C429.366 431.792 429.806 431.48 430.302 431.256C430.798 431.016 431.342 430.896 431.934 430.896ZM441.948 430.896C442.188 430.896 442.444 430.912 442.716 430.944C443.004 430.96 443.252 430.992 443.46 431.04L443.196 432.984C442.988 432.936 442.756 432.896 442.5 432.864C442.26 432.832 442.028 432.816 441.804 432.816C441.308 432.816 440.836 432.92 440.388 433.128C439.94 433.336 439.54 433.632 439.188 434.016C438.836 434.384 438.556 434.832 438.348 435.36C438.156 435.888 438.06 436.48 438.06 437.136V444H435.948V431.136H437.676L437.916 433.488H438.012C438.284 433.008 438.612 432.576 438.996 432.192C439.38 431.792 439.82 431.48 440.316 431.256C440.812 431.016 441.356 430.896 441.948 430.896ZM450.461 430.896C451.565 430.896 452.509 431.136 453.293 431.616C454.093 432.096 454.701 432.776 455.117 433.656C455.549 434.52 455.765 435.536 455.765 436.704V437.976H446.957C446.989 439.432 447.357 440.544 448.061 441.312C448.781 442.064 449.781 442.44 451.061 442.44C451.877 442.44 452.597 442.368 453.221 442.224C453.861 442.064 454.517 441.84 455.189 441.552V443.4C454.533 443.688 453.885 443.896 453.245 444.024C452.605 444.168 451.845 444.24 450.965 444.24C449.749 444.24 448.669 443.992 447.725 443.496C446.797 443 446.069 442.264 445.541 441.288C445.029 440.296 444.773 439.088 444.773 437.664C444.773 436.256 445.005 435.048 445.469 434.04C445.949 433.032 446.613 432.256 447.461 431.712C448.325 431.168 449.325 430.896 450.461 430.896ZM450.437 432.624C449.429 432.624 448.629 432.952 448.037 433.608C447.461 434.248 447.117 435.144 447.005 436.296H453.557C453.557 435.56 453.445 434.92 453.221 434.376C452.997 433.832 452.653 433.408 452.189 433.104C451.741 432.784 451.157 432.624 450.437 432.624ZM465.332 430.896C466.868 430.896 468.028 431.272 468.812 432.024C469.596 432.76 469.988 433.96 469.988 435.624V444H467.9V435.768C467.9 434.728 467.668 433.952 467.204 433.44C466.74 432.928 466.012 432.672 465.02 432.672C463.596 432.672 462.612 433.072 462.068 433.872C461.524 434.672 461.252 435.824 461.252 437.328V444H459.14V431.136H460.844L461.156 432.888H461.276C461.564 432.44 461.916 432.072 462.332 431.784C462.764 431.48 463.236 431.256 463.748 431.112C464.26 430.968 464.788 430.896 465.332 430.896ZM478.372 442.512C478.692 442.512 479.02 442.488 479.356 442.44C479.692 442.376 479.964 442.312 480.172 442.248V443.856C479.948 443.968 479.628 444.056 479.212 444.12C478.796 444.2 478.396 444.24 478.012 444.24C477.34 444.24 476.716 444.128 476.14 443.904C475.58 443.664 475.124 443.256 474.772 442.68C474.42 442.104 474.244 441.296 474.244 440.256V432.768H472.42V431.76L474.268 430.92L475.108 428.184H476.356V431.136H480.076V432.768H476.356V440.208C476.356 440.992 476.54 441.576 476.908 441.96C477.292 442.328 477.78 442.512 478.372 442.512ZM484.96 444H482.848V425.76H484.96V444ZM487.119 431.136H489.375L492.159 438.456C492.319 438.888 492.463 439.304 492.591 439.704C492.735 440.104 492.863 440.496 492.975 440.88C493.087 441.248 493.175 441.608 493.239 441.96H493.335C493.431 441.56 493.583 441.04 493.791 440.4C493.999 439.744 494.215 439.088 494.439 438.432L497.055 431.136H499.335L493.791 445.776C493.487 446.576 493.127 447.272 492.711 447.864C492.311 448.472 491.815 448.936 491.223 449.256C490.647 449.592 489.943 449.76 489.111 449.76C488.727 449.76 488.391 449.736 488.103 449.688C487.815 449.656 487.567 449.616 487.359 449.568V447.888C487.535 447.92 487.743 447.952 487.983 447.984C488.239 448.016 488.503 448.032 488.775 448.032C489.271 448.032 489.695 447.936 490.047 447.744C490.415 447.568 490.727 447.304 490.983 446.952C491.239 446.616 491.455 446.216 491.631 445.752L492.303 444.048L487.119 431.136ZM513.996 430.896C515.532 430.896 516.692 431.272 517.476 432.024C518.26 432.76 518.652 433.96 518.652 435.624V444H516.564V435.768C516.564 434.728 516.332 433.952 515.868 433.44C515.404 432.928 514.676 432.672 513.684 432.672C512.26 432.672 511.276 433.072 510.732 433.872C510.188 434.672 509.916 435.824 509.916 437.328V444H507.804V431.136H509.508L509.82 432.888H509.94C510.228 432.44 510.58 432.072 510.996 431.784C511.428 431.48 511.9 431.256 512.412 431.112C512.924 430.968 513.452 430.896 513.996 430.896ZM533.924 437.544C533.924 438.616 533.78 439.568 533.492 440.4C533.22 441.216 532.82 441.912 532.292 442.488C531.78 443.064 531.148 443.504 530.396 443.808C529.66 444.096 528.836 444.24 527.924 444.24C527.076 444.24 526.292 444.096 525.572 443.808C524.852 443.504 524.228 443.064 523.7 442.488C523.172 441.912 522.756 441.216 522.452 440.4C522.164 439.568 522.02 438.616 522.02 437.544C522.02 436.12 522.26 434.92 522.74 433.944C523.22 432.952 523.908 432.2 524.804 431.688C525.7 431.16 526.764 430.896 527.996 430.896C529.164 430.896 530.188 431.16 531.068 431.688C531.964 432.2 532.66 432.952 533.156 433.944C533.668 434.92 533.924 436.12 533.924 437.544ZM524.204 437.544C524.204 438.552 524.332 439.432 524.588 440.184C524.86 440.92 525.276 441.488 525.836 441.888C526.396 442.288 527.108 442.488 527.972 442.488C528.836 442.488 529.548 442.288 530.108 441.888C530.668 441.488 531.076 440.92 531.332 440.184C531.604 439.432 531.74 438.552 531.74 437.544C531.74 436.52 531.604 435.648 531.332 434.928C531.06 434.208 530.644 433.656 530.084 433.272C529.54 432.872 528.828 432.672 527.948 432.672C526.636 432.672 525.684 433.104 525.092 433.968C524.5 434.832 524.204 436.024 524.204 437.544ZM541.667 442.512C541.987 442.512 542.315 442.488 542.651 442.44C542.987 442.376 543.259 442.312 543.467 442.248V443.856C543.243 443.968 542.923 444.056 542.507 444.12C542.091 444.2 541.691 444.24 541.307 444.24C540.635 444.24 540.011 444.128 539.435 443.904C538.875 443.664 538.419 443.256 538.067 442.68C537.715 442.104 537.539 441.296 537.539 440.256V432.768H535.715V431.76L537.563 430.92L538.403 428.184H539.651V431.136H543.371V432.768H539.651V440.208C539.651 440.992 539.835 441.576 540.203 441.96C540.587 442.328 541.075 442.512 541.667 442.512ZM558.406 432.768H555.166V444H553.054V432.768H550.798V431.784L553.054 431.064V430.32C553.054 429.216 553.214 428.32 553.534 427.632C553.87 426.944 554.35 426.44 554.974 426.12C555.598 425.8 556.35 425.64 557.23 425.64C557.742 425.64 558.206 425.688 558.622 425.784C559.054 425.864 559.422 425.96 559.726 426.072L559.174 427.728C558.918 427.648 558.622 427.568 558.286 427.488C557.95 427.408 557.606 427.368 557.254 427.368C556.55 427.368 556.022 427.608 555.67 428.088C555.334 428.552 555.166 429.288 555.166 430.296V431.136H558.406V432.768ZM572.011 437.544C572.011 438.616 571.867 439.568 571.579 440.4C571.307 441.216 570.907 441.912 570.379 442.488C569.867 443.064 569.235 443.504 568.483 443.808C567.747 444.096 566.923 444.24 566.011 444.24C565.163 444.24 564.379 444.096 563.659 443.808C562.939 443.504 562.315 443.064 561.787 442.488C561.259 441.912 560.843 441.216 560.539 440.4C560.251 439.568 560.107 438.616 560.107 437.544C560.107 436.12 560.347 434.92 560.827 433.944C561.307 432.952 561.995 432.2 562.891 431.688C563.787 431.16 564.851 430.896 566.083 430.896C567.251 430.896 568.275 431.16 569.155 431.688C570.051 432.2 570.747 432.952 571.243 433.944C571.755 434.92 572.011 436.12 572.011 437.544ZM562.291 437.544C562.291 438.552 562.419 439.432 562.675 440.184C562.947 440.92 563.363 441.488 563.923 441.888C564.483 442.288 565.195 442.488 566.059 442.488C566.923 442.488 567.635 442.288 568.195 441.888C568.755 441.488 569.163 440.92 569.419 440.184C569.691 439.432 569.827 438.552 569.827 437.544C569.827 436.52 569.691 435.648 569.419 434.928C569.147 434.208 568.731 433.656 568.171 433.272C567.627 432.872 566.915 432.672 566.035 432.672C564.723 432.672 563.771 433.104 563.179 433.968C562.587 434.832 562.291 436.024 562.291 437.544ZM586.211 431.136V444H584.483L584.171 442.296H584.075C583.803 442.744 583.451 443.112 583.019 443.4C582.587 443.688 582.115 443.896 581.603 444.024C581.091 444.168 580.555 444.24 579.995 444.24C578.971 444.24 578.107 444.08 577.403 443.76C576.715 443.424 576.195 442.912 575.843 442.224C575.491 441.536 575.315 440.648 575.315 439.56V431.136H577.451V439.416C577.451 440.44 577.683 441.208 578.147 441.72C578.611 442.232 579.331 442.488 580.307 442.488C581.267 442.488 582.019 442.312 582.563 441.96C583.123 441.592 583.515 441.064 583.739 440.376C583.979 439.672 584.099 438.824 584.099 437.832V431.136H586.211ZM596.587 430.896C598.123 430.896 599.283 431.272 600.067 432.024C600.851 432.76 601.243 433.96 601.243 435.624V444H599.155V435.768C599.155 434.728 598.923 433.952 598.459 433.44C597.995 432.928 597.267 432.672 596.275 432.672C594.851 432.672 593.867 433.072 593.323 433.872C592.779 434.672 592.507 435.824 592.507 437.328V444H590.395V431.136H592.099L592.411 432.888H592.531C592.819 432.44 593.171 432.072 593.587 431.784C594.019 431.48 594.491 431.256 595.003 431.112C595.515 430.968 596.043 430.896 596.587 430.896ZM609.891 444.24C608.291 444.24 607.011 443.688 606.051 442.584C605.091 441.464 604.611 439.8 604.611 437.592C604.611 435.384 605.091 433.72 606.051 432.6C607.027 431.464 608.315 430.896 609.915 430.896C610.587 430.896 611.171 430.984 611.667 431.16C612.163 431.32 612.595 431.544 612.963 431.832C613.331 432.12 613.643 432.44 613.899 432.792H614.043C614.027 432.584 613.995 432.28 613.947 431.88C613.915 431.464 613.899 431.136 613.899 430.896V425.76H616.011V444H614.307L613.995 442.272H613.899C613.643 442.64 613.331 442.976 612.963 443.28C612.595 443.568 612.155 443.8 611.643 443.976C611.147 444.152 610.563 444.24 609.891 444.24ZM610.227 442.488C611.587 442.488 612.539 442.12 613.083 441.384C613.643 440.632 613.923 439.504 613.923 438V437.616C613.923 436.016 613.659 434.792 613.131 433.944C612.603 433.08 611.627 432.648 610.203 432.648C609.067 432.648 608.211 433.104 607.635 434.016C607.075 434.912 606.795 436.12 606.795 437.64C606.795 439.176 607.075 440.368 607.635 441.216C608.211 442.064 609.075 442.488 610.227 442.488ZM619.884 442.704C619.884 442.112 620.028 441.696 620.316 441.456C620.604 441.216 620.948 441.096 621.348 441.096C621.764 441.096 622.116 441.216 622.404 441.456C622.708 441.696 622.86 442.112 622.86 442.704C622.86 443.28 622.708 443.696 622.404 443.952C622.116 444.208 621.764 444.336 621.348 444.336C620.948 444.336 620.604 444.208 620.316 443.952C620.028 443.696 619.884 443.28 619.884 442.704Z" fill="black"/>
<g filter="url(#filter2_d_786_1685)">
<g filter="url(#filter3_d_786_1685)">
<path d="M275.129 132.694H298.839H275.129ZM417.389 132.694H441.099H417.389ZM358.114 346.084C266.452 346.084 192.145 271.777 192.145 180.114C192.145 88.4519 266.452 14.1445 358.114 14.1445C449.777 14.1445 524.084 88.4519 524.084 180.114C524.084 271.777 449.777 346.084 358.114 346.084ZM346.259 180.114H369.969C389.611 180.114 405.534 196.037 405.534 215.679C405.534 235.321 389.611 242.084 369.969 242.084H346.259C326.617 242.084 310.694 235.321 310.694 215.679C310.694 196.037 326.617 180.114 346.259 180.114Z" fill="white"/>
</g>
<g filter="url(#filter4_d_786_1685)">
<circle cx="359" cy="181" r="164" fill="url(#paint0_linear_786_1685)" shape-rendering="crispEdges"/>
</g>
<path d="M318.5 224L334 209.5H372L396 218L403 233.5L406.5 252L400.5 261L392.5 265.5L374 270.5H353.5L320.5 265.5L309.5 247L318.5 224Z" fill="black"/>
<g filter="url(#filter5_d_786_1685)">
<path fill-rule="evenodd" clip-rule="evenodd" d="M358.115 18.29C268.742 18.29 196.29 90.7416 196.29 180.115C196.29 269.489 268.742 341.94 358.115 341.94C447.489 341.94 519.94 269.489 519.94 180.115C519.94 90.7416 447.489 18.29 358.115 18.29ZM188 180.115C188 86.1631 264.163 10 358.115 10C452.067 10 528.23 86.1631 528.23 180.115C528.23 274.067 452.067 350.23 358.115 350.23C264.163 350.23 188 274.067 188 180.115ZM298.84 148.875H275.13V140.585H298.84V148.875ZM441.1 148.875H417.39V140.585H441.1V148.875ZM346.26 213.085C328.907 213.085 314.84 227.152 314.84 244.505C314.84 252.993 318.168 258.246 323.356 261.589C328.83 265.115 336.795 266.765 346.26 266.765H369.97C379.435 266.765 387.4 265.115 392.873 261.589C398.062 258.246 401.39 252.993 401.39 244.505C401.39 227.152 387.323 213.085 369.97 213.085H346.26ZM306.55 244.505C306.55 222.574 324.329 204.795 346.26 204.795H369.97C391.901 204.795 409.68 222.574 409.68 244.505C409.68 255.659 405.046 263.608 397.363 268.558C389.965 273.324 380.147 275.055 369.97 275.055H346.26C336.083 275.055 326.265 273.324 318.867 268.558C311.184 263.608 306.55 255.659 306.55 244.505Z" fill="black"/>
</g>
<g filter="url(#filter6_d_786_1685)">
<path d="M412.085 86.085L448.085 108.085" stroke="black" stroke-width="8.29" stroke-linecap="round"/>
</g>
<g filter="url(#filter7_d_786_1685)">
<path d="M302.085 86.085L266.085 108.085" stroke="black" stroke-width="8.29" stroke-linecap="round"/>
</g>
<g filter="url(#filter8_d_786_1685)">
<rect x="275.085" y="131.085" width="24" height="28" rx="12" fill="black"/>
</g>
<g filter="url(#filter9_d_786_1685)">
<rect x="417.085" y="131.085" width="24" height="28" rx="12" fill="black"/>
</g>
</g>
<defs>
<filter id="filter0_d_786_1685" x="494" y="207" width="256.165" height="153.232" filterUnits="userSpaceOnUse" color-interpolation-filters="sRGB">
<feFlood flood-opacity="0" result="BackgroundImageFix"/>
<feColorMatrix in="SourceAlpha" type="matrix" values="0 0 0 0 0 0 0 0 0 0 0 0 0 0 0 0 0 0 127 0" result="hardAlpha"/>
<feOffset dy="4"/>
<feGaussianBlur stdDeviation="5"/>
<feComposite in2="hardAlpha" operator="out"/>
<feColorMatrix type="matrix" values="0 0 0 0 0 0 0 0 0 0 0 0 0 0 0 0 0 0 0.25 0"/>
<feBlend mode="normal" in2="BackgroundImageFix" result="effect1_dropShadow_786_1685"/>
<feBlend mode="normal" in="SourceGraphic" in2="effect1_dropShadow_786_1685" result="shape"/>
</filter>
<filter id="filter1_d_786_1685" x="21" y="207.518" width="200.792" height="152.716" filterUnits="userSpaceOnUse" color-interpolation-filters="sRGB">
<feFlood flood-opacity="0" result="BackgroundImageFix"/>
<feColorMatrix in="SourceAlpha" type="matrix" values="0 0 0 0 0 0 0 0 0 0 0 0 0 0 0 0 0 0 127 0" result="hardAlpha"/>
<feOffset dy="4"/>
<feGaussianBlur stdDeviation="5"/>
<feComposite in2="hardAlpha" operator="out"/>
<feColorMatrix type="matrix" values="0 0 0 0 0 0 0 0 0 0 0 0 0 0 0 0 0 0 0.25 0"/>
<feBlend mode="normal" in2="BackgroundImageFix" result="effect1_dropShadow_786_1685"/>
<feBlend mode="normal" in="SourceGraphic" in2="effect1_dropShadow_786_1685" result="shape"/>
</filter>
<filter id="filter2_d_786_1685" x="178" y="0" width="360.229" height="360.229" filterUnits="userSpaceOnUse" color-interpolation-filters="sRGB">
<feFlood flood-opacity="0" result="BackgroundImageFix"/>
<feColorMatrix in="SourceAlpha" type="matrix" values="0 0 0 0 0 0 0 0 0 0 0 0 0 0 0 0 0 0 127 0" result="hardAlpha"/>
<feOffset/>
<feGaussianBlur stdDeviation="5"/>
<feComposite in2="hardAlpha" operator="out"/>
<feColorMatrix type="matrix" values="0 0 0 0 0 0 0 0 0 0 0 0 0 0 0 0 0 0 0.25 0"/>
<feBlend mode="normal" in2="BackgroundImageFix" result="effect1_dropShadow_786_1685"/>
<feBlend mode="normal" in="SourceGraphic" in2="effect1_dropShadow_786_1685" result="shape"/>
</filter>
<filter id="filter3_d_786_1685" x="182.145" y="4.14453" width="351.939" height="351.939" filterUnits="userSpaceOnUse" color-interpolation-filters="sRGB">
<feFlood flood-opacity="0" result="BackgroundImageFix"/>
<feColorMatrix in="SourceAlpha" type="matrix" values="0 0 0 0 0 0 0 0 0 0 0 0 0 0 0 0 0 0 127 0" result="hardAlpha"/>
<feOffset/>
<feGaussianBlur stdDeviation="5"/>
<feComposite in2="hardAlpha" operator="out"/>
<feColorMatrix type="matrix" values="0 0 0 0 0 0 0 0 0 0 0 0 0 0 0 0 0 0 0.25 0"/>
<feBlend mode="normal" in2="BackgroundImageFix" result="effect1_dropShadow_786_1685"/>
<feBlend mode="normal" in="SourceGraphic" in2="effect1_dropShadow_786_1685" result="shape"/>
</filter>
<filter id="filter4_d_786_1685" x="191" y="17" width="336" height="336" filterUnits="userSpaceOnUse" color-interpolation-filters="sRGB">
<feFlood flood-opacity="0" result="BackgroundImageFix"/>
<feColorMatrix in="SourceAlpha" type="matrix" values="0 0 0 0 0 0 0 0 0 0 0 0 0 0 0 0 0 0 127 0" result="hardAlpha"/>
<feOffset dy="4"/>
<feGaussianBlur stdDeviation="2"/>
<feComposite in2="hardAlpha" operator="out"/>
<feColorMatrix type="matrix" values="0 0 0 0 0 0 0 0 0 0 0 0 0 0 0 0 0 0 0.25 0"/>
<feBlend mode="normal" in2="BackgroundImageFix" result="effect1_dropShadow_786_1685"/>
<feBlend mode="normal" in="SourceGraphic" in2="effect1_dropShadow_786_1685" result="shape"/>
</filter>
<filter id="filter5_d_786_1685" x="184" y="10" width="348.229" height="348.229" filterUnits="userSpaceOnUse" color-interpolation-filters="sRGB">
<feFlood flood-opacity="0" result="BackgroundImageFix"/>
<feColorMatrix in="SourceAlpha" type="matrix" values="0 0 0 0 0 0 0 0 0 0 0 0 0 0 0 0 0 0 127 0" result="hardAlpha"/>
<feOffset dy="4"/>
<feGaussianBlur stdDeviation="2"/>
<feComposite in2="hardAlpha" operator="out"/>
<feColorMatrix type="matrix" values="0 0 0 0 0 0 0 0 0 0 0 0 0 0 0 0 0 0 0.25 0"/>
<feBlend mode="normal" in2="BackgroundImageFix" result="effect1_dropShadow_786_1685"/>
<feBlend mode="normal" in="SourceGraphic" in2="effect1_dropShadow_786_1685" result="shape"/>
</filter>
<filter id="filter6_d_786_1685" x="403.939" y="81.9395" width="52.291" height="38.291" filterUnits="userSpaceOnUse" color-interpolation-filters="sRGB">
<feFlood flood-opacity="0" result="BackgroundImageFix"/>
<feColorMatrix in="SourceAlpha" type="matrix" values="0 0 0 0 0 0 0 0 0 0 0 0 0 0 0 0 0 0 127 0" result="hardAlpha"/>
<feOffset dy="4"/>
<feGaussianBlur stdDeviation="2"/>
<feComposite in2="hardAlpha" operator="out"/>
<feColorMatrix type="matrix" values="0 0 0 0 0 0 0 0 0 0 0 0 0 0 0 0 0 0 0.25 0"/>
<feBlend mode="normal" in2="BackgroundImageFix" result="effect1_dropShadow_786_1685"/>
<feBlend mode="normal" in="SourceGraphic" in2="effect1_dropShadow_786_1685" result="shape"/>
</filter>
<filter id="filter7_d_786_1685" x="257.939" y="81.9395" width="52.291" height="38.291" filterUnits="userSpaceOnUse" color-interpolation-filters="sRGB">
<feFlood flood-opacity="0" result="BackgroundImageFix"/>
<feColorMatrix in="SourceAlpha" type="matrix" values="0 0 0 0 0 0 0 0 0 0 0 0 0 0 0 0 0 0 127 0" result="hardAlpha"/>
<feOffset dy="4"/>
<feGaussianBlur stdDeviation="2"/>
<feComposite in2="hardAlpha" operator="out"/>
<feColorMatrix type="matrix" values="0 0 0 0 0 0 0 0 0 0 0 0 0 0 0 0 0 0 0.25 0"/>
<feBlend mode="normal" in2="BackgroundImageFix" result="effect1_dropShadow_786_1685"/>
<feBlend mode="normal" in="SourceGraphic" in2="effect1_dropShadow_786_1685" result="shape"/>
</filter>
<filter id="filter8_d_786_1685" x="271.085" y="131.085" width="32" height="36" filterUnits="userSpaceOnUse" color-interpolation-filters="sRGB">
<feFlood flood-opacity="0" result="BackgroundImageFix"/>
<feColorMatrix in="SourceAlpha" type="matrix" values="0 0 0 0 0 0 0 0 0 0 0 0 0 0 0 0 0 0 127 0" result="hardAlpha"/>
<feOffset dy="4"/>
<feGaussianBlur stdDeviation="2"/>
<feComposite in2="hardAlpha" operator="out"/>
<feColorMatrix type="matrix" values="0 0 0 0 0 0 0 0 0 0 0 0 0 0 0 0 0 0 0.25 0"/>
<feBlend mode="normal" in2="BackgroundImageFix" result="effect1_dropShadow_786_1685"/>
<feBlend mode="normal" in="SourceGraphic" in2="effect1_dropShadow_786_1685" result="shape"/>
</filter>
<filter id="filter9_d_786_1685" x="413.085" y="131.085" width="32" height="36" filterUnits="userSpaceOnUse" color-interpolation-filters="sRGB">
<feFlood flood-opacity="0" result="BackgroundImageFix"/>
<feColorMatrix in="SourceAlpha" type="matrix" values="0 0 0 0 0 0 0 0 0 0 0 0 0 0 0 0 0 0 127 0" result="hardAlpha"/>
<feOffset dy="4"/>
<feGaussianBlur stdDeviation="2"/>
<feComposite in2="hardAlpha" operator="out"/>
<feColorMatrix type="matrix" values="0 0 0 0 0 0 0 0 0 0 0 0 0 0 0 0 0 0 0.25 0"/>
<feBlend mode="normal" in2="BackgroundImageFix" result="effect1_dropShadow_786_1685"/>
<feBlend mode="normal" in="SourceGraphic" in2="effect1_dropShadow_786_1685" result="shape"/>
</filter>
<linearGradient id="paint0_linear_786_1685" x1="359" y1="17" x2="359" y2="345" gradientUnits="userSpaceOnUse">
<stop stop-color="#3964D4"/>
<stop offset="1" stop-color="white" stop-opacity="0"/>
</linearGradient>
</defs>
</svg>
