<svg width="60" height="59" viewBox="0 0 60 59" fill="none" xmlns="http://www.w3.org/2000/svg">
<g filter="url(#filter0_d_404_1403)">
<circle cx="30" cy="26" r="25.75" fill="white" stroke="#D4D4D4" stroke-width="0.5"/>
<path d="M27.5263 40.3771C28.4993 39.9844 29.4089 39.7901 30.257 39.7901C31.0656 39.7901 31.9501 39.9844 32.9124 40.3771C33.8717 40.7715 34.6957 40.9659 35.379 40.9659C36.3308 40.9436 37.2197 40.553 38.0493 39.7901L27.5263 40.3771ZM27.5263 40.3771C26.5519 40.7715 25.7669 40.977 25.1668 40.9975M27.5263 40.3771L25.1668 40.9975M25.1668 40.9975C24.254 41.0361 23.3442 40.6343 22.4361 39.7901C21.8565 39.2844 21.1315 38.4177 20.263 37.1901L25.1668 40.9975ZM35.3761 40.7159C34.7378 40.7153 33.9484 40.5328 33.0075 40.1459L33.0069 40.1456C32.0224 39.7439 31.1055 39.5401 30.257 39.5401C29.3705 39.5401 28.4289 39.7432 27.4328 40.1453L27.4325 40.1454C26.4684 40.5357 25.7152 40.7286 25.1582 40.7476L25.1562 40.7477C24.3312 40.7826 23.4834 40.4224 22.6063 39.607L22.6064 39.6069L22.6005 39.6017C22.0439 39.1162 21.3328 38.2693 20.4671 37.0457L20.4668 37.0453C19.5505 35.756 18.7947 34.2576 18.2013 32.5438C17.5664 30.6945 17.25 28.9092 17.25 27.1852C17.25 25.2113 17.6762 23.5235 18.5191 22.116L18.5191 22.116L18.5203 22.114C19.1833 20.9824 20.0631 20.0926 21.1645 19.4388L21.0369 19.2238L21.1645 19.4388C22.2647 18.7857 23.4517 18.4531 24.7329 18.4314C25.413 18.4319 26.3296 18.6439 27.5001 19.0805C28.0918 19.3026 28.5818 19.4715 28.9678 19.5853C29.3455 19.6966 29.6486 19.7629 29.8542 19.7629C29.9483 19.7629 30.0724 19.7399 30.2097 19.7068C30.3531 19.6722 30.5317 19.6213 30.7439 19.5551C31.1686 19.4224 31.739 19.2247 32.4525 18.9629C33.7814 18.4847 34.8799 18.2957 35.7616 18.3705L35.7626 18.3706C38.1222 18.5611 39.8939 19.4549 41.1033 21.0432C38.9309 22.4432 37.84 24.3886 37.8623 26.8558L37.8623 26.8562C37.8833 28.8364 38.6048 30.495 40.0209 31.8078C40.602 32.3593 41.2464 32.798 41.9571 33.1242C41.8151 33.5241 41.6663 33.9092 41.5099 34.2809C41.0629 35.3138 40.5342 36.2631 39.9223 37.1355L39.9222 37.1355C39.0764 38.3415 38.3963 39.1574 37.8853 39.6014L37.8853 39.6013L37.8801 39.6061C37.0875 40.3349 36.2556 40.6946 35.3761 40.7159ZM31.561 13.4445L31.5621 13.4432C32.0935 12.8333 32.7726 12.322 33.604 11.9115C34.3446 11.5506 35.0404 11.3377 35.6917 11.2687C35.6983 11.379 35.7012 11.4896 35.7012 11.6001V11.6002C35.7012 13.0335 35.1794 14.3786 34.1199 15.6363C32.8875 17.0767 31.4394 17.8999 29.8956 17.8521C29.8875 17.745 29.8831 17.6347 29.8831 17.5211C29.8831 16.1509 30.4813 14.6666 31.561 13.4445Z" fill="black" stroke="#D4D4D4" stroke-width="0.5"/>
</g>
<defs>
<filter id="filter0_d_404_1403" x="0" y="0" width="60" height="60" filterUnits="userSpaceOnUse" color-interpolation-filters="sRGB">
<feFlood flood-opacity="0" result="BackgroundImageFix"/>
<feColorMatrix in="SourceAlpha" type="matrix" values="0 0 0 0 0 0 0 0 0 0 0 0 0 0 0 0 0 0 127 0" result="hardAlpha"/>
<feOffset dy="4"/>
<feGaussianBlur stdDeviation="2"/>
<feComposite in2="hardAlpha" operator="out"/>
<feColorMatrix type="matrix" values="0 0 0 0 0 0 0 0 0 0 0 0 0 0 0 0 0 0 0.25 0"/>
<feBlend mode="normal" in2="BackgroundImageFix" result="effect1_dropShadow_404_1403"/>
<feBlend mode="normal" in="SourceGraphic" in2="effect1_dropShadow_404_1403" result="shape"/>
</filter>
</defs>
</svg>
