<svg width="60" height="59" viewBox="0 0 60 59" fill="none" xmlns="http://www.w3.org/2000/svg">
<g filter="url(#filter0_d_404_1398)">
<circle cx="30" cy="26" r="25.75" fill="white" stroke="#D4D4D4" stroke-width="0.5"/>
<path d="M30 41C38.2842 41 45 34.2842 45 26C45 17.7157 38.2842 11 30 11C21.7157 11 15 17.7157 15 26C15 34.2842 21.7157 41 30 41Z" fill="#1977F3"/>
<path d="M35.8389 30.3365L36.5033 25.9996H32.3436V23.1856C32.3436 22.0002 32.9237 20.8421 34.7884 20.8421H36.6805V17.1506C36.6805 17.1506 34.9635 16.8574 33.3224 16.8574C29.8967 16.8574 27.6565 18.9331 27.6565 22.6941V25.9996H23.8469V30.3365H27.6565V40.8182C28.4201 40.9384 29.2027 40.9996 30.0001 40.9996C30.7974 40.9996 31.58 40.9363 32.3436 40.8182V30.3365H35.8389Z" fill="white"/>
</g>
<defs>
<filter id="filter0_d_404_1398" x="0" y="0" width="60" height="60" filterUnits="userSpaceOnUse" color-interpolation-filters="sRGB">
<feFlood flood-opacity="0" result="BackgroundImageFix"/>
<feColorMatrix in="SourceAlpha" type="matrix" values="0 0 0 0 0 0 0 0 0 0 0 0 0 0 0 0 0 0 127 0" result="hardAlpha"/>
<feOffset dy="4"/>
<feGaussianBlur stdDeviation="2"/>
<feComposite in2="hardAlpha" operator="out"/>
<feColorMatrix type="matrix" values="0 0 0 0 0 0 0 0 0 0 0 0 0 0 0 0 0 0 0.25 0"/>
<feBlend mode="normal" in2="BackgroundImageFix" result="effect1_dropShadow_404_1398"/>
<feBlend mode="normal" in="SourceGraphic" in2="effect1_dropShadow_404_1398" result="shape"/>
</filter>
</defs>
</svg>
