<svg width="150" height="132" viewBox="0 0 150 132" fill="none" xmlns="http://www.w3.org/2000/svg">
<path d="M78.1797 16.5996C78.1797 16.5996 94.6797 14.0996 114.68 1.09961C114.68 1.09961 114.68 11.0996 115.68 16.0996C115.68 16.0996 118.18 16.5996 130.18 15.5996C130.18 15.5996 125.18 22.5996 117.18 27.5996C117.18 27.5996 118.18 35.5996 120.18 42.5996C120.18 42.5996 112.18 49.5996 80.1797 53.5996C80.1797 53.5996 79.1797 35.5996 78.1797 16.5996Z" fill="black"/>
<path d="M76.6797 64.0996L118.68 60.0996C118.68 60.0996 125.68 63.0996 126.68 70.0996C127.68 77.0996 121.68 86.0996 121.68 86.0996C121.68 86.0996 132.68 83.0996 139.68 90.0996C146.68 97.0996 147.05 104.49 147.05 104.49V123.86H89.6797C89.6797 123.86 98.6797 110.1 90.6797 105.1C82.6797 100.1 78.1797 107.03 78.1797 107.03C78.1797 107.03 60.0697 130.49 39.8797 130.29C19.6797 130.09 3.17969 124.59 3.17969 93.5896L45.6797 93.0896C45.6797 93.0896 72.1797 91.5896 76.6797 64.0896V64.0996Z" fill="black"/>
<path d="M61.5897 70.1896C71.3797 51.6196 62.6797 19.0996 62.6797 19.0996C62.6797 19.0996 29.6797 17.0996 16.6797 29.0996C3.67969 41.0996 2.67969 82.0996 2.67969 82.0996C18.6697 83.3596 33.1597 83.7396 43.8997 81.5496L42.1797 62.5996L61.5897 70.1896Z" fill="black"/>
</svg>