<svg width="146" height="130" viewBox="0 0 146 130" fill="none" xmlns="http://www.w3.org/2000/svg">
<path d="M76.3193 15.9004C76.3193 15.9004 92.8193 13.4004 112.819 0.400391C112.819 0.400391 112.819 10.4004 113.819 15.4004C113.819 15.4004 116.319 15.9004 128.319 14.9004C128.319 14.9004 123.319 21.9004 115.319 26.9004C115.319 26.9004 116.319 34.9004 118.319 41.9004C118.319 41.9004 110.319 48.9004 78.3193 52.9004C78.3193 52.9004 77.3193 34.9004 76.3193 15.9004Z" fill="#FBBC05"/>
<path d="M74.8193 63.4004L116.819 59.4004C116.819 59.4004 123.819 62.4004 124.819 69.4004C125.819 76.4004 119.819 85.4004 119.819 85.4004C119.819 85.4004 130.819 82.4004 137.819 89.4004C144.819 96.4004 145.189 103.79 145.189 103.79V123.16H87.8193C87.8193 123.16 96.8193 109.4 88.8193 104.4C80.8193 99.4004 76.3193 106.33 76.3193 106.33C76.3193 106.33 58.2093 129.79 38.0193 129.59C17.8193 129.39 1.31934 123.89 1.31934 92.8904L43.8193 92.3904C43.8193 92.4004 70.3193 90.9004 74.8193 63.4004Z" fill="#737373"/>
<path d="M59.7196 69.4904C69.5096 50.9204 60.8096 18.4004 60.8096 18.4004C60.8096 18.4004 27.8096 16.4004 14.8096 28.4004C1.80957 40.4004 0.80957 81.4004 0.80957 81.4004C16.7996 82.6604 31.2896 83.0404 42.0296 80.8504L40.3196 61.9004L59.7196 69.4904Z" fill="#05C3B6"/>
</svg>
