<svg viewBox="0 0 116 23" fill="none" xmlns="http://www.w3.org/2000/svg">
<path d="M9.86663 1.872C10.7626 1.872 11.5866 1.984 12.3386 2.208C13.1066 2.416 13.8826 2.752 14.6666 3.216L15.2186 2.76C15.6026 2.456 15.9146 2.248 16.1546 2.136C16.4106 2.024 16.6986 1.968 17.0186 1.968C17.4026 1.968 17.7066 2.056 17.9306 2.232C18.1546 2.392 18.2666 2.632 18.2666 2.952C18.2666 3.08 18.2426 3.216 18.1946 3.36L17.1866 6.672C17.0746 7.056 16.9306 7.328 16.7546 7.488C16.5946 7.648 16.3466 7.728 16.0106 7.728C15.6586 7.728 15.3466 7.624 15.0746 7.416C14.8186 7.192 14.4106 6.744 13.8506 6.072C13.2906 5.432 12.7786 4.984 12.3146 4.728C11.8666 4.456 11.4026 4.32 10.9226 4.32C10.5706 4.32 10.2746 4.44 10.0346 4.68C9.79463 4.904 9.67463 5.184 9.67463 5.52C9.67463 5.904 9.86663 6.264 10.2506 6.6C10.6346 6.92 11.2346 7.328 12.0506 7.824C12.8826 8.32 13.5706 8.768 14.1146 9.168C14.6586 9.568 15.1226 10.064 15.5066 10.656C15.8906 11.248 16.0826 11.928 16.0826 12.696C16.0826 13.192 16.0026 13.688 15.8426 14.184C15.4586 15.464 14.7146 16.44 13.6106 17.112C12.5066 17.768 11.2186 18.096 9.74663 18.096C8.64263 18.096 7.71463 17.968 6.96263 17.712C6.21063 17.456 5.44263 17.024 4.65863 16.416L3.79463 17.136C3.39463 17.472 3.06663 17.704 2.81063 17.832C2.55463 17.944 2.26663 18 1.94663 18C1.57863 18 1.28263 17.912 1.05863 17.736C0.850625 17.56 0.746625 17.32 0.746625 17.016C0.746625 16.856 0.778625 16.688 0.842625 16.512L2.01863 12.936C2.14663 12.52 2.32263 12.224 2.54663 12.048C2.77063 11.872 3.05863 11.784 3.41063 11.784C3.77863 11.784 4.10663 11.912 4.39463 12.168C4.69863 12.424 5.09063 12.888 5.57063 13.56C6.08263 14.296 6.55463 14.808 6.98663 15.096C7.43463 15.384 7.96263 15.528 8.57063 15.528C9.00263 15.528 9.33063 15.464 9.55463 15.336C9.79463 15.192 9.96263 14.968 10.0586 14.664C10.0906 14.584 10.1066 14.464 10.1066 14.304C10.1066 13.92 9.92263 13.568 9.55463 13.248C9.18663 12.928 8.61863 12.544 7.85063 12.096C7.03463 11.6 6.37063 11.16 5.85863 10.776C5.34663 10.376 4.89863 9.88 4.51463 9.288C4.14663 8.696 3.96263 8 3.96263 7.2C3.96263 6.64 4.05063 6.088 4.22663 5.544C4.56263 4.44 5.25063 3.552 6.29063 2.88C7.33063 2.208 8.52263 1.872 9.86663 1.872ZM26.0055 5.304C27.8455 5.304 29.3175 5.648 30.4215 6.336C31.5255 7.008 32.0775 8.04 32.0775 9.432C32.0775 9.96 31.9815 10.56 31.7895 11.232L30.8055 14.544C30.7895 14.608 30.7815 14.688 30.7815 14.784C30.7815 15.04 30.8855 15.168 31.0935 15.168C31.2855 15.168 31.4455 15.088 31.5735 14.928C31.7175 14.752 31.8135 14.664 31.8615 14.664C31.9415 14.664 32.0055 14.72 32.0535 14.832C32.1175 14.944 32.1495 15.072 32.1495 15.216C32.1655 15.648 31.9975 16.088 31.6455 16.536C31.3095 16.984 30.8535 17.352 30.2775 17.64C29.7015 17.928 29.0695 18.072 28.3815 18.072C27.5495 18.072 26.8375 17.92 26.2455 17.616C25.6535 17.312 25.2455 16.864 25.0215 16.272C24.5415 16.848 23.9735 17.296 23.3175 17.616C22.6615 17.92 21.9575 18.072 21.2055 18.072C20.3575 18.072 19.6455 17.912 19.0695 17.592C18.4935 17.256 18.0615 16.832 17.7735 16.32C17.5015 15.792 17.3655 15.24 17.3655 14.664C17.3655 14.408 17.3895 14.16 17.4375 13.92C17.6935 12.816 18.2455 11.984 19.0935 11.424C19.9575 10.864 20.9815 10.584 22.1655 10.584C23.4935 10.584 24.7975 10.792 26.0775 11.208L26.6775 9.624C26.8855 8.952 26.9895 8.432 26.9895 8.064C26.9735 7.68 26.8455 7.392 26.6055 7.2C26.3655 7.008 25.9975 6.912 25.5015 6.912C25.5975 7.168 25.6455 7.432 25.6455 7.704C25.6455 8.296 25.4215 8.808 24.9735 9.24C24.5255 9.672 23.8855 9.888 23.0535 9.888C22.2695 9.888 21.6535 9.72 21.2055 9.384C20.7735 9.032 20.5575 8.6 20.5575 8.088C20.5575 7.288 21.0055 6.624 21.9015 6.096C22.7975 5.568 24.1655 5.304 26.0055 5.304ZM24.6615 12.576C24.2135 12.576 23.8455 12.752 23.5575 13.104C23.2855 13.44 23.1495 13.808 23.1495 14.208C23.1495 14.464 23.2055 14.672 23.3175 14.832C23.4455 14.992 23.6215 15.072 23.8455 15.072C24.0535 15.072 24.2775 14.992 24.5175 14.832C24.7735 14.656 24.9575 14.4 25.0695 14.064L25.5735 12.648C25.3015 12.6 24.9975 12.576 24.6615 12.576ZM47.9966 14.688C47.9646 14.752 47.9486 14.848 47.9486 14.976C47.9486 15.088 47.9726 15.176 48.0206 15.24C48.0846 15.304 48.1646 15.336 48.2606 15.336C48.4526 15.336 48.6126 15.256 48.7406 15.096C48.8846 14.92 48.9806 14.832 49.0286 14.832C49.1086 14.832 49.1726 14.888 49.2206 15C49.2686 15.096 49.2926 15.216 49.2926 15.36C49.3086 15.824 49.1566 16.28 48.8366 16.728C48.5166 17.16 48.0446 17.52 47.4206 17.808C46.8126 18.08 46.0766 18.216 45.2126 18.216C44.1566 18.216 43.3166 17.976 42.6926 17.496C42.0686 17 41.7486 16.344 41.7326 15.528C41.7326 14.936 41.8766 14.272 42.1646 13.536L43.4846 10.08C43.5646 9.872 43.6046 9.704 43.6046 9.576C43.6046 9.368 43.5326 9.208 43.3886 9.096C43.2606 8.968 43.1006 8.904 42.9086 8.904C42.5566 8.904 42.2206 9.072 41.9006 9.408C41.5806 9.728 41.3486 10.128 41.2046 10.608L39.7166 15.504C39.6526 15.68 39.6206 15.848 39.6206 16.008C39.6206 16.2 39.6606 16.36 39.7406 16.488C39.8206 16.6 39.9326 16.72 40.0766 16.848C40.1886 16.944 40.2686 17.032 40.3166 17.112C40.3646 17.192 40.3726 17.288 40.3406 17.4C40.2766 17.608 40.1246 17.76 39.8846 17.856C39.6446 17.952 39.2686 18 38.7566 18H33.2846C32.8686 18 32.5726 17.936 32.3966 17.808C32.2046 17.664 32.1326 17.48 32.1806 17.256C32.2446 17.064 32.4126 16.896 32.6846 16.752C32.9246 16.624 33.1246 16.472 33.2846 16.296C33.4446 16.12 33.5806 15.84 33.6926 15.456L35.8286 8.52C35.8606 8.44 35.8766 8.328 35.8766 8.184C35.8766 8.008 35.8366 7.872 35.7566 7.776C35.6926 7.68 35.5806 7.56 35.4206 7.416C35.2606 7.288 35.1486 7.176 35.0846 7.08C35.0206 6.984 35.0126 6.856 35.0606 6.696C35.1566 6.328 35.6606 6.008 36.5726 5.736C37.4846 5.448 38.4366 5.304 39.4286 5.304C40.2286 5.304 40.8606 5.528 41.3246 5.976C41.7886 6.408 41.9966 7.016 41.9486 7.8C42.6046 6.856 43.3006 6.208 44.0366 5.856C44.7726 5.488 45.5726 5.304 46.4366 5.304C47.4126 5.304 48.1966 5.6 48.7886 6.192C49.3966 6.784 49.7006 7.552 49.7006 8.496C49.7006 8.992 49.6206 9.48 49.4606 9.96L47.9966 14.688ZM61.0483 5.616C61.3523 5.616 61.5843 5.68 61.7443 5.808C61.9203 5.936 62.0083 6.112 62.0083 6.336C62.0083 6.4 61.9923 6.512 61.9603 6.672C61.7523 7.376 61.2723 7.728 60.5203 7.728H59.1283L57.3283 13.656C57.2483 13.896 57.2083 14.144 57.2083 14.4C57.2083 14.688 57.2883 14.888 57.4483 15C57.6083 15.112 57.8323 15.168 58.1203 15.168C58.3763 15.168 58.6963 15.136 59.0803 15.072C59.2723 15.024 59.4403 15 59.5843 15C59.6963 15 59.7763 15.04 59.8243 15.12C59.8883 15.184 59.9203 15.272 59.9203 15.384C59.9363 15.704 59.6963 16.096 59.2003 16.56C58.7203 17.008 58.0643 17.4 57.2323 17.736C56.4003 18.056 55.4803 18.216 54.4723 18.216C53.3843 18.216 52.5123 17.968 51.8563 17.472C51.2003 16.976 50.8723 16.296 50.8723 15.432C50.8723 15.032 50.9363 14.648 51.0643 14.28L52.6003 9.528C52.6803 9.256 52.7203 9.04 52.7203 8.88C52.7203 8.56 52.6403 8.288 52.4803 8.064C52.3363 7.84 52.1283 7.608 51.8563 7.368C51.6163 7.144 51.4483 6.96 51.3523 6.816C51.2563 6.656 51.2323 6.472 51.2803 6.264C51.3443 6.056 51.4803 5.896 51.6883 5.784C51.8963 5.672 52.2243 5.616 52.6723 5.616H54.0163L55.5283 4.104C56.0563 3.576 56.5363 3.208 56.9683 3C57.4163 2.792 57.9923 2.688 58.6963 2.688C59.7043 2.688 60.2083 3.072 60.2083 3.84C60.2083 4.08 60.1763 4.304 60.1123 4.512L59.7763 5.616H61.0483ZM66.9448 5.304C67.8728 5.304 68.5528 5.48 68.9848 5.832C69.4168 6.184 69.6328 6.664 69.6328 7.272C69.6328 7.64 69.5768 7.992 69.4648 8.328L67.2568 15.504C67.2088 15.696 67.1848 15.864 67.1848 16.008C67.1848 16.216 67.2248 16.384 67.3048 16.512C67.3848 16.624 67.4968 16.736 67.6408 16.848C67.7528 16.96 67.8328 17.056 67.8808 17.136C67.9288 17.2 67.9368 17.288 67.9048 17.4C67.8248 17.608 67.6648 17.76 67.4248 17.856C67.1848 17.952 66.8168 18 66.3208 18H60.8488C60.4328 18 60.1288 17.936 59.9368 17.808C59.7448 17.664 59.6808 17.48 59.7448 17.256C59.8088 17.064 59.9768 16.896 60.2488 16.752C60.4888 16.624 60.6888 16.472 60.8488 16.296C61.0088 16.12 61.1448 15.84 61.2568 15.456L63.3448 8.52C63.3928 8.376 63.4168 8.256 63.4168 8.16C63.4168 7.984 63.3768 7.848 63.2968 7.752C63.2168 7.64 63.0968 7.528 62.9368 7.416C62.7768 7.288 62.6648 7.176 62.6008 7.08C62.5368 6.984 62.5288 6.856 62.5768 6.696C62.6728 6.328 63.1768 6.008 64.0888 5.736C65.0008 5.448 65.9528 5.304 66.9448 5.304ZM68.5528 -1.43051e-06C69.1768 -1.43051e-06 69.6968 0.207999 70.1128 0.623999C70.5288 1.024 70.7368 1.52 70.7368 2.112C70.7368 2.528 70.6248 2.936 70.4008 3.336C70.1928 3.736 69.8888 4.064 69.4888 4.32C69.1048 4.56 68.6728 4.68 68.1928 4.68C67.5848 4.68 67.0728 4.48 66.6568 4.08C66.2568 3.664 66.0488 3.152 66.0328 2.544C66.0328 2.144 66.1368 1.752 66.3448 1.368C66.5528 0.967999 66.8488 0.639999 67.2328 0.383999C67.6168 0.127999 68.0568 -1.43051e-06 68.5528 -1.43051e-06ZM77.9899 5.304C79.8299 5.304 81.3019 5.648 82.4059 6.336C83.5099 7.008 84.0619 8.04 84.0619 9.432C84.0619 9.96 83.9659 10.56 83.7739 11.232L82.7899 14.544C82.7739 14.608 82.7659 14.688 82.7659 14.784C82.7659 15.04 82.8699 15.168 83.0779 15.168C83.2699 15.168 83.4299 15.088 83.5579 14.928C83.7019 14.752 83.7979 14.664 83.8459 14.664C83.9259 14.664 83.9899 14.72 84.0379 14.832C84.1019 14.944 84.1339 15.072 84.1339 15.216C84.1499 15.648 83.9819 16.088 83.6299 16.536C83.2939 16.984 82.8379 17.352 82.2619 17.64C81.6859 17.928 81.0539 18.072 80.3659 18.072C79.5339 18.072 78.8219 17.92 78.2299 17.616C77.6379 17.312 77.2299 16.864 77.0059 16.272C76.5259 16.848 75.9579 17.296 75.3019 17.616C74.6459 17.92 73.9419 18.072 73.1899 18.072C72.3419 18.072 71.6299 17.912 71.0539 17.592C70.4779 17.256 70.0459 16.832 69.7579 16.32C69.4859 15.792 69.3499 15.24 69.3499 14.664C69.3499 14.408 69.3739 14.16 69.4219 13.92C69.6779 12.816 70.2299 11.984 71.0779 11.424C71.9419 10.864 72.9659 10.584 74.1499 10.584C75.4779 10.584 76.7819 10.792 78.0619 11.208L78.6619 9.624C78.8699 8.952 78.9739 8.432 78.9739 8.064C78.9579 7.68 78.8299 7.392 78.5899 7.2C78.3499 7.008 77.9819 6.912 77.4859 6.912C77.5819 7.168 77.6299 7.432 77.6299 7.704C77.6299 8.296 77.4059 8.808 76.9579 9.24C76.5099 9.672 75.8699 9.888 75.0379 9.888C74.2539 9.888 73.6379 9.72 73.1899 9.384C72.7579 9.032 72.5419 8.6 72.5419 8.088C72.5419 7.288 72.9899 6.624 73.8859 6.096C74.7819 5.568 76.1499 5.304 77.9899 5.304ZM76.6459 12.576C76.1979 12.576 75.8299 12.752 75.5419 13.104C75.2699 13.44 75.1339 13.808 75.1339 14.208C75.1339 14.464 75.1899 14.672 75.3019 14.832C75.4299 14.992 75.6059 15.072 75.8299 15.072C76.0379 15.072 76.2619 14.992 76.5019 14.832C76.7579 14.656 76.9419 14.4 77.0539 14.064L77.5579 12.648C77.2859 12.6 76.9819 12.576 76.6459 12.576ZM99.669 1.392C100.181 1.392 100.677 1.504 101.157 1.728C101.653 1.936 102.053 2.232 102.357 2.616C102.677 2.984 102.837 3.384 102.837 3.816C102.837 4.76 102.197 5.232 100.917 5.232C100.549 5.232 100.261 5.208 100.053 5.16C99.861 5.096 99.629 5 99.357 4.872C99.309 4.984 99.285 5.144 99.285 5.352C99.285 5.608 99.325 5.912 99.405 6.264C99.501 6.616 99.613 6.944 99.741 7.248C100.077 7.744 100.245 8.336 100.245 9.024C100.245 9.328 100.205 9.696 100.125 10.128C99.933 10.96 99.509 11.72 98.853 12.408C98.213 13.096 97.381 13.64 96.357 14.04C95.349 14.424 94.237 14.616 93.021 14.616C92.093 14.616 91.221 14.552 90.405 14.424C90.165 14.632 90.045 14.888 90.045 15.192C90.045 15.4 90.141 15.576 90.333 15.72C90.525 15.848 90.845 15.912 91.293 15.912H94.893C96.125 15.912 97.085 16.128 97.773 16.56C98.461 16.976 98.805 17.576 98.805 18.36C98.805 18.648 98.757 18.944 98.661 19.248C98.469 19.872 98.029 20.448 97.341 20.976C96.669 21.52 95.717 21.96 94.485 22.296C93.253 22.632 91.757 22.8 89.997 22.8C88.429 22.8 87.101 22.664 86.013 22.392C84.925 22.12 84.117 21.744 83.589 21.264C83.045 20.8 82.773 20.28 82.773 19.704C82.773 19.576 82.805 19.384 82.869 19.128C83.013 18.664 83.341 18.288 83.853 18C84.349 17.696 85.173 17.496 86.325 17.4C85.941 17.032 85.749 16.592 85.749 16.08C85.749 15.904 85.773 15.72 85.821 15.528C86.077 14.696 86.829 14.08 88.077 13.68C86.877 13.024 86.277 12.064 86.277 10.8C86.277 10.448 86.325 10.08 86.421 9.696C86.613 8.864 87.037 8.112 87.693 7.44C88.349 6.752 89.189 6.208 90.213 5.808C91.237 5.408 92.357 5.208 93.573 5.208C95.477 5.208 96.973 5.456 98.061 5.952C97.821 5.584 97.629 5.192 97.485 4.776C97.357 4.344 97.293 3.952 97.293 3.6C97.293 2.992 97.485 2.472 97.869 2.04C98.269 1.608 98.869 1.392 99.669 1.392ZM94.461 9.912C94.717 9.096 94.845 8.472 94.845 8.04C94.845 7.496 94.613 7.224 94.149 7.224C93.749 7.224 93.397 7.424 93.093 7.824C92.805 8.208 92.509 8.904 92.205 9.912C91.949 10.744 91.821 11.376 91.821 11.808C91.821 12.336 92.045 12.6 92.493 12.6C92.893 12.6 93.245 12.4 93.549 12C93.853 11.6 94.157 10.904 94.461 9.912ZM89.685 18.336C89.237 18.336 88.829 18.312 88.461 18.264C88.269 18.504 88.173 18.824 88.173 19.224C88.189 19.624 88.349 19.912 88.653 20.088C88.973 20.264 89.461 20.352 90.117 20.352C90.917 20.352 91.565 20.232 92.061 19.992C92.573 19.752 92.829 19.408 92.829 18.96C92.829 18.768 92.757 18.616 92.613 18.504C92.469 18.392 92.261 18.336 91.989 18.336H89.685ZM109.647 5.304C111.823 5.304 113.423 5.744 114.447 6.624C115.487 7.504 116.007 8.656 116.007 10.08C116.007 10.56 115.943 11.096 115.815 11.688C115.511 13 114.943 14.152 114.111 15.144C113.279 16.12 112.255 16.88 111.039 17.424C109.839 17.952 108.535 18.216 107.127 18.216C104.903 18.216 103.255 17.776 102.183 16.896C101.127 16 100.599 14.816 100.599 13.344C100.599 12.848 100.663 12.296 100.791 11.688C101.095 10.44 101.671 9.336 102.519 8.376C103.383 7.4 104.431 6.648 105.663 6.12C106.911 5.576 108.239 5.304 109.647 5.304ZM109.575 7.44C109.239 7.44 108.879 7.744 108.495 8.352C108.127 8.944 107.687 10.072 107.175 11.736C106.663 13.4 106.407 14.568 106.407 15.24C106.407 15.592 106.463 15.832 106.575 15.96C106.687 16.072 106.839 16.128 107.031 16.128C107.367 16.16 107.711 15.872 108.063 15.264C108.431 14.656 108.887 13.472 109.431 11.712C109.927 10.16 110.175 9.032 110.175 8.328C110.175 7.992 110.119 7.76 110.007 7.632C109.911 7.504 109.767 7.44 109.575 7.44Z" fill="black"/>
</svg>
