<svg viewBox="0 0 27 27" fill="none" xmlns="http://www.w3.org/2000/svg">
<path d="M26 1.83333V25.1667C26 25.6269 25.6269 26 25.1667 26H1.83333C1.3731 26 1 25.6269 1 25.1667V1.83333C1 1.3731 1.3731 1 1.83333 1H25.1667C25.6269 1 26 1.3731 26 1.83333Z" stroke="black" stroke-width="2" stroke-linecap="round" stroke-linejoin="round"/>
<path d="M1 19.0553L10.7222 14.8887L26 21.8331" stroke="black" stroke-width="2" stroke-linecap="round" stroke-linejoin="round"/>
<path d="M19.0556 10.7225C17.5214 10.7225 16.2778 9.47889 16.2778 7.94477C16.2778 6.41064 17.5214 5.16699 19.0556 5.16699C20.5898 5.16699 21.8334 6.41064 21.8334 7.94477C21.8334 9.47889 20.5898 10.7225 19.0556 10.7225Z" stroke="black" stroke-width="2" stroke-linecap="round" stroke-linejoin="round"/>
</svg>
