<svg width="225" height="225" viewBox="0 0 225 225" fill="none" xmlns="http://www.w3.org/2000/svg">
<rect width="225" height="225" rx="10" fill="#D9D9D9"/>
<path d="M114.55 67.8432C114.55 67.8432 122.264 66.5114 131.614 59.5859C131.614 59.5859 131.614 64.9132 132.081 67.5768C132.081 67.5768 133.25 67.8432 138.86 67.3104C138.86 67.3104 136.523 71.0395 132.783 73.7031C132.783 73.7031 133.25 77.9649 134.185 81.694C134.185 81.694 130.445 85.4231 115.485 87.554C115.485 87.554 115.017 77.9649 114.55 67.8432Z" fill="#737373"/>
<path d="M113.848 93.1475L133.484 91.0166C133.484 91.0166 136.756 92.6148 137.224 96.3438C137.691 100.073 134.886 104.867 134.886 104.867C134.886 104.867 140.029 103.269 143.301 106.998C146.574 110.727 146.747 114.664 146.747 114.664V124.983H119.926C119.926 124.983 124.133 117.653 120.393 114.989C116.653 112.326 114.549 116.017 114.549 116.017C114.549 116.017 106.083 128.515 96.6439 128.409C87.2002 128.302 79.4863 125.372 79.4863 108.858L99.3554 108.591C99.3554 108.591 111.744 107.792 113.848 93.1422V93.1475Z" fill="#737373"/>
<path d="M106.794 96.3919C111.371 86.4992 107.303 69.175 107.303 69.175C107.303 69.175 91.8757 68.1095 85.798 74.5022C79.7204 80.8949 79.2529 102.737 79.2529 102.737C86.7284 103.408 93.5026 103.61 98.5236 102.444L97.7195 92.3485L106.794 96.3919Z" fill="#737373"/>
<path opacity="0.9" d="M71.9722 141.56C72.7189 141.56 73.4055 141.653 74.0322 141.84C74.6722 142.013 75.3189 142.293 75.9722 142.68L76.4322 142.3C76.7522 142.047 77.0122 141.873 77.2122 141.78C77.4255 141.687 77.6655 141.64 77.9322 141.64C78.2522 141.64 78.5055 141.713 78.6922 141.86C78.8789 141.993 78.9722 142.193 78.9722 142.46C78.9722 142.567 78.9522 142.68 78.9122 142.8L78.0722 145.56C77.9789 145.88 77.8589 146.107 77.7122 146.24C77.5789 146.373 77.3722 146.44 77.0922 146.44C76.7989 146.44 76.5389 146.353 76.3122 146.18C76.0989 145.993 75.7589 145.62 75.2922 145.06C74.8255 144.527 74.3989 144.153 74.0122 143.94C73.6389 143.713 73.2522 143.6 72.8522 143.6C72.5589 143.6 72.3122 143.7 72.1122 143.9C71.9122 144.087 71.8122 144.32 71.8122 144.6C71.8122 144.92 71.9722 145.22 72.2922 145.5C72.6122 145.767 73.1122 146.107 73.7922 146.52C74.4855 146.933 75.0589 147.307 75.5122 147.64C75.9655 147.973 76.3522 148.387 76.6722 148.88C76.9922 149.373 77.1522 149.94 77.1522 150.58C77.1522 150.993 77.0855 151.407 76.9522 151.82C76.6322 152.887 76.0122 153.7 75.0922 154.26C74.1722 154.807 73.0989 155.08 71.8722 155.08C70.9522 155.08 70.1789 154.973 69.5522 154.76C68.9255 154.547 68.2855 154.187 67.6322 153.68L66.9122 154.28C66.5789 154.56 66.3055 154.753 66.0922 154.86C65.8789 154.953 65.6389 155 65.3722 155C65.0655 155 64.8189 154.927 64.6322 154.78C64.4589 154.633 64.3722 154.433 64.3722 154.18C64.3722 154.047 64.3989 153.907 64.4522 153.76L65.4322 150.78C65.5389 150.433 65.6855 150.187 65.8722 150.04C66.0589 149.893 66.2989 149.82 66.5922 149.82C66.8989 149.82 67.1722 149.927 67.4122 150.14C67.6655 150.353 67.9922 150.74 68.3922 151.3C68.8189 151.913 69.2122 152.34 69.5722 152.58C69.9455 152.82 70.3855 152.94 70.8922 152.94C71.2522 152.94 71.5255 152.887 71.7122 152.78C71.9122 152.66 72.0522 152.473 72.1322 152.22C72.1589 152.153 72.1722 152.053 72.1722 151.92C72.1722 151.6 72.0189 151.307 71.7122 151.04C71.4055 150.773 70.9322 150.453 70.2922 150.08C69.6122 149.667 69.0589 149.3 68.6322 148.98C68.2055 148.647 67.8322 148.233 67.5122 147.74C67.2055 147.247 67.0522 146.667 67.0522 146C67.0522 145.533 67.1255 145.073 67.2722 144.62C67.5522 143.7 68.1255 142.96 68.9922 142.4C69.8589 141.84 70.8522 141.56 71.9722 141.56ZM85.4213 144.42C86.9546 144.42 88.1813 144.707 89.1013 145.28C90.0213 145.84 90.4813 146.7 90.4813 147.86C90.4813 148.3 90.4013 148.8 90.2413 149.36L89.4213 152.12C89.4079 152.173 89.4013 152.24 89.4013 152.32C89.4013 152.533 89.4879 152.64 89.6613 152.64C89.8213 152.64 89.9546 152.573 90.0613 152.44C90.1813 152.293 90.2613 152.22 90.3013 152.22C90.3679 152.22 90.4213 152.267 90.4613 152.36C90.5146 152.453 90.5413 152.56 90.5413 152.68C90.5546 153.04 90.4146 153.407 90.1213 153.78C89.8413 154.153 89.4613 154.46 88.9813 154.7C88.5013 154.94 87.9746 155.06 87.4013 155.06C86.7079 155.06 86.1146 154.933 85.6213 154.68C85.1279 154.427 84.7879 154.053 84.6013 153.56C84.2013 154.04 83.7279 154.413 83.1813 154.68C82.6346 154.933 82.0479 155.06 81.4213 155.06C80.7146 155.06 80.1213 154.927 79.6413 154.66C79.1613 154.38 78.8013 154.027 78.5613 153.6C78.3346 153.16 78.2212 152.7 78.2212 152.22C78.2212 152.007 78.2412 151.8 78.2812 151.6C78.4946 150.68 78.9546 149.987 79.6613 149.52C80.3813 149.053 81.2346 148.82 82.2213 148.82C83.3279 148.82 84.4146 148.993 85.4813 149.34L85.9813 148.02C86.1546 147.46 86.2413 147.027 86.2413 146.72C86.2279 146.4 86.1213 146.16 85.9213 146C85.7213 145.84 85.4146 145.76 85.0013 145.76C85.0813 145.973 85.1213 146.193 85.1213 146.42C85.1213 146.913 84.9346 147.34 84.5613 147.7C84.1879 148.06 83.6546 148.24 82.9613 148.24C82.3079 148.24 81.7946 148.1 81.4213 147.82C81.0613 147.527 80.8813 147.167 80.8813 146.74C80.8813 146.073 81.2546 145.52 82.0013 145.08C82.7479 144.64 83.8879 144.42 85.4213 144.42ZM84.3013 150.48C83.9279 150.48 83.6213 150.627 83.3813 150.92C83.1546 151.2 83.0413 151.507 83.0413 151.84C83.0413 152.053 83.0879 152.227 83.1813 152.36C83.2879 152.493 83.4346 152.56 83.6213 152.56C83.7946 152.56 83.9813 152.493 84.1813 152.36C84.3946 152.213 84.5479 152 84.6413 151.72L85.0613 150.54C84.8346 150.5 84.5813 150.48 84.3013 150.48ZM103.747 152.24C103.721 152.293 103.707 152.373 103.707 152.48C103.707 152.573 103.727 152.647 103.767 152.7C103.821 152.753 103.887 152.78 103.967 152.78C104.127 152.78 104.261 152.713 104.367 152.58C104.487 152.433 104.567 152.36 104.607 152.36C104.674 152.36 104.727 152.407 104.767 152.5C104.807 152.58 104.827 152.68 104.827 152.8C104.841 153.187 104.714 153.567 104.447 153.94C104.181 154.3 103.787 154.6 103.267 154.84C102.761 155.067 102.147 155.18 101.427 155.18C100.547 155.18 99.8472 154.98 99.3272 154.58C98.8072 154.167 98.5405 153.62 98.5272 152.94C98.5272 152.447 98.6472 151.893 98.8872 151.28L99.9872 148.4C100.054 148.227 100.087 148.087 100.087 147.98C100.087 147.807 100.027 147.673 99.9072 147.58C99.8005 147.473 99.6672 147.42 99.5072 147.42C99.2139 147.42 98.9339 147.56 98.6672 147.84C98.4005 148.107 98.2072 148.44 98.0872 148.84L96.8472 152.92C96.7939 153.067 96.7672 153.207 96.7672 153.34C96.7672 153.5 96.8005 153.633 96.8672 153.74C96.9339 153.833 97.0272 153.933 97.1472 154.04C97.2405 154.12 97.3072 154.193 97.3472 154.26C97.3872 154.327 97.3939 154.407 97.3672 154.5C97.3139 154.673 97.1872 154.8 96.9872 154.88C96.7872 154.96 96.4739 155 96.0472 155H91.4872C91.1405 155 90.8939 154.947 90.7472 154.84C90.5872 154.72 90.5272 154.567 90.5672 154.38C90.6205 154.22 90.7605 154.08 90.9872 153.96C91.1872 153.853 91.3539 153.727 91.4872 153.58C91.6205 153.433 91.7339 153.2 91.8272 152.88L93.6072 147.1C93.6339 147.033 93.6472 146.94 93.6472 146.82C93.6472 146.673 93.6139 146.56 93.5472 146.48C93.4939 146.4 93.4005 146.3 93.2672 146.18C93.1339 146.073 93.0405 145.98 92.9872 145.9C92.9339 145.82 92.9272 145.713 92.9672 145.58C93.0472 145.273 93.4672 145.007 94.2272 144.78C94.9872 144.54 95.7805 144.42 96.6072 144.42C97.2739 144.42 97.8005 144.607 98.1872 144.98C98.5739 145.34 98.7472 145.847 98.7072 146.5C99.2539 145.713 99.8339 145.173 100.447 144.88C101.061 144.573 101.727 144.42 102.447 144.42C103.261 144.42 103.914 144.667 104.407 145.16C104.914 145.653 105.167 146.293 105.167 147.08C105.167 147.493 105.101 147.9 104.967 148.3L103.747 152.24ZM114.624 144.68C114.877 144.68 115.07 144.733 115.204 144.84C115.35 144.947 115.424 145.093 115.424 145.28C115.424 145.333 115.41 145.427 115.384 145.56C115.21 146.147 114.81 146.44 114.184 146.44H113.024L111.524 151.38C111.457 151.58 111.424 151.787 111.424 152C111.424 152.24 111.49 152.407 111.624 152.5C111.757 152.593 111.944 152.64 112.184 152.64C112.397 152.64 112.664 152.613 112.984 152.56C113.144 152.52 113.284 152.5 113.404 152.5C113.497 152.5 113.564 152.533 113.604 152.6C113.657 152.653 113.684 152.727 113.684 152.82C113.697 153.087 113.497 153.413 113.084 153.8C112.684 154.173 112.137 154.5 111.444 154.78C110.75 155.047 109.984 155.18 109.144 155.18C108.237 155.18 107.51 154.973 106.964 154.56C106.417 154.147 106.144 153.58 106.144 152.86C106.144 152.527 106.197 152.207 106.304 151.9L107.584 147.94C107.65 147.713 107.684 147.533 107.684 147.4C107.684 147.133 107.617 146.907 107.484 146.72C107.364 146.533 107.19 146.34 106.964 146.14C106.764 145.953 106.624 145.8 106.544 145.68C106.464 145.547 106.444 145.393 106.484 145.22C106.537 145.047 106.65 144.913 106.824 144.82C106.997 144.727 107.27 144.68 107.644 144.68H108.764L110.024 143.42C110.464 142.98 110.864 142.673 111.224 142.5C111.597 142.327 112.077 142.24 112.664 142.24C113.504 142.24 113.924 142.56 113.924 143.2C113.924 143.4 113.897 143.587 113.844 143.76L113.564 144.68H114.624ZM119.537 144.42C120.311 144.42 120.877 144.567 121.237 144.86C121.597 145.153 121.777 145.553 121.777 146.06C121.777 146.367 121.731 146.66 121.637 146.94L119.797 152.92C119.757 153.08 119.737 153.22 119.737 153.34C119.737 153.513 119.771 153.653 119.837 153.76C119.904 153.853 119.997 153.947 120.117 154.04C120.211 154.133 120.277 154.213 120.317 154.28C120.357 154.333 120.364 154.407 120.337 154.5C120.271 154.673 120.137 154.8 119.937 154.88C119.737 154.96 119.431 155 119.017 155H114.457C114.111 155 113.857 154.947 113.697 154.84C113.537 154.72 113.484 154.567 113.537 154.38C113.591 154.22 113.731 154.08 113.957 153.96C114.157 153.853 114.324 153.727 114.457 153.58C114.591 153.433 114.704 153.2 114.797 152.88L116.537 147.1C116.577 146.98 116.597 146.88 116.597 146.8C116.597 146.653 116.564 146.54 116.497 146.46C116.431 146.367 116.331 146.273 116.197 146.18C116.064 146.073 115.971 145.98 115.917 145.9C115.864 145.82 115.857 145.713 115.897 145.58C115.977 145.273 116.397 145.007 117.157 144.78C117.917 144.54 118.711 144.42 119.537 144.42ZM120.877 140C121.397 140 121.831 140.173 122.177 140.52C122.524 140.853 122.697 141.267 122.697 141.76C122.697 142.107 122.604 142.447 122.417 142.78C122.244 143.113 121.991 143.387 121.657 143.6C121.337 143.8 120.977 143.9 120.577 143.9C120.071 143.9 119.644 143.733 119.297 143.4C118.964 143.053 118.791 142.627 118.777 142.12C118.777 141.787 118.864 141.46 119.037 141.14C119.211 140.807 119.457 140.533 119.777 140.32C120.097 140.107 120.464 140 120.877 140ZM128.742 144.42C130.275 144.42 131.502 144.707 132.422 145.28C133.342 145.84 133.802 146.7 133.802 147.86C133.802 148.3 133.722 148.8 133.562 149.36L132.742 152.12C132.728 152.173 132.722 152.24 132.722 152.32C132.722 152.533 132.808 152.64 132.982 152.64C133.142 152.64 133.275 152.573 133.382 152.44C133.502 152.293 133.582 152.22 133.622 152.22C133.688 152.22 133.742 152.267 133.782 152.36C133.835 152.453 133.862 152.56 133.862 152.68C133.875 153.04 133.735 153.407 133.442 153.78C133.162 154.153 132.782 154.46 132.302 154.7C131.822 154.94 131.295 155.06 130.722 155.06C130.028 155.06 129.435 154.933 128.942 154.68C128.448 154.427 128.108 154.053 127.922 153.56C127.522 154.04 127.048 154.413 126.502 154.68C125.955 154.933 125.368 155.06 124.742 155.06C124.035 155.06 123.442 154.927 122.962 154.66C122.482 154.38 122.122 154.027 121.882 153.6C121.655 153.16 121.542 152.7 121.542 152.22C121.542 152.007 121.562 151.8 121.602 151.6C121.815 150.68 122.275 149.987 122.982 149.52C123.702 149.053 124.555 148.82 125.542 148.82C126.648 148.82 127.735 148.993 128.802 149.34L129.302 148.02C129.475 147.46 129.562 147.027 129.562 146.72C129.548 146.4 129.442 146.16 129.242 146C129.042 145.84 128.735 145.76 128.322 145.76C128.402 145.973 128.442 146.193 128.442 146.42C128.442 146.913 128.255 147.34 127.882 147.7C127.508 148.06 126.975 148.24 126.282 148.24C125.628 148.24 125.115 148.1 124.742 147.82C124.382 147.527 124.202 147.167 124.202 146.74C124.202 146.073 124.575 145.52 125.322 145.08C126.068 144.64 127.208 144.42 128.742 144.42ZM127.622 150.48C127.248 150.48 126.942 150.627 126.702 150.92C126.475 151.2 126.362 151.507 126.362 151.84C126.362 152.053 126.408 152.227 126.502 152.36C126.608 152.493 126.755 152.56 126.942 152.56C127.115 152.56 127.302 152.493 127.502 152.36C127.715 152.213 127.868 152 127.962 151.72L128.382 150.54C128.155 150.5 127.902 150.48 127.622 150.48ZM146.808 141.16C147.234 141.16 147.648 141.253 148.048 141.44C148.461 141.613 148.794 141.86 149.048 142.18C149.314 142.487 149.448 142.82 149.448 143.18C149.448 143.967 148.914 144.36 147.848 144.36C147.541 144.36 147.301 144.34 147.128 144.3C146.968 144.247 146.774 144.167 146.548 144.06C146.508 144.153 146.488 144.287 146.488 144.46C146.488 144.673 146.521 144.927 146.588 145.22C146.668 145.513 146.761 145.787 146.868 146.04C147.148 146.453 147.288 146.947 147.288 147.52C147.288 147.773 147.254 148.08 147.188 148.44C147.028 149.133 146.674 149.767 146.128 150.34C145.594 150.913 144.901 151.367 144.048 151.7C143.208 152.02 142.281 152.18 141.268 152.18C140.494 152.18 139.768 152.127 139.088 152.02C138.888 152.193 138.788 152.407 138.788 152.66C138.788 152.833 138.868 152.98 139.028 153.1C139.188 153.207 139.454 153.26 139.827 153.26H142.828C143.854 153.26 144.654 153.44 145.228 153.8C145.801 154.147 146.088 154.647 146.088 155.3C146.088 155.54 146.048 155.787 145.968 156.04C145.808 156.56 145.441 157.04 144.868 157.48C144.308 157.933 143.514 158.3 142.488 158.58C141.461 158.86 140.214 159 138.748 159C137.441 159 136.334 158.887 135.428 158.66C134.521 158.433 133.847 158.12 133.407 157.72C132.954 157.333 132.727 156.9 132.727 156.42C132.727 156.313 132.754 156.153 132.807 155.94C132.927 155.553 133.201 155.24 133.627 155C134.041 154.747 134.727 154.58 135.688 154.5C135.368 154.193 135.208 153.827 135.208 153.4C135.208 153.253 135.228 153.1 135.268 152.94C135.481 152.247 136.108 151.733 137.148 151.4C136.148 150.853 135.648 150.053 135.648 149C135.648 148.707 135.688 148.4 135.768 148.08C135.928 147.387 136.281 146.76 136.828 146.2C137.374 145.627 138.074 145.173 138.928 144.84C139.781 144.507 140.714 144.34 141.728 144.34C143.314 144.34 144.561 144.547 145.468 144.96C145.268 144.653 145.108 144.327 144.988 143.98C144.881 143.62 144.828 143.293 144.828 143C144.828 142.493 144.988 142.06 145.308 141.7C145.641 141.34 146.141 141.16 146.808 141.16ZM142.468 148.26C142.681 147.58 142.788 147.06 142.788 146.7C142.788 146.247 142.594 146.02 142.208 146.02C141.874 146.02 141.581 146.187 141.328 146.52C141.088 146.84 140.841 147.42 140.588 148.26C140.374 148.953 140.268 149.48 140.268 149.84C140.268 150.28 140.454 150.5 140.828 150.5C141.161 150.5 141.454 150.333 141.708 150C141.961 149.667 142.214 149.087 142.468 148.26ZM138.488 155.28C138.114 155.28 137.774 155.26 137.468 155.22C137.308 155.42 137.228 155.687 137.228 156.02C137.241 156.353 137.374 156.593 137.627 156.74C137.894 156.887 138.301 156.96 138.848 156.96C139.514 156.96 140.054 156.86 140.468 156.66C140.894 156.46 141.108 156.173 141.108 155.8C141.108 155.64 141.048 155.513 140.928 155.42C140.808 155.327 140.634 155.28 140.408 155.28H138.488ZM155.123 144.42C156.936 144.42 158.269 144.787 159.123 145.52C159.989 146.253 160.423 147.213 160.423 148.4C160.423 148.8 160.369 149.247 160.263 149.74C160.009 150.833 159.536 151.793 158.843 152.62C158.149 153.433 157.296 154.067 156.283 154.52C155.283 154.96 154.196 155.18 153.023 155.18C151.169 155.18 149.796 154.813 148.903 154.08C148.023 153.333 147.583 152.347 147.583 151.12C147.583 150.707 147.636 150.247 147.743 149.74C147.996 148.7 148.476 147.78 149.183 146.98C149.903 146.167 150.776 145.54 151.803 145.1C152.843 144.647 153.949 144.42 155.123 144.42ZM155.063 146.2C154.783 146.2 154.483 146.453 154.163 146.96C153.856 147.453 153.489 148.393 153.063 149.78C152.636 151.167 152.423 152.14 152.423 152.7C152.423 152.993 152.469 153.193 152.563 153.3C152.656 153.393 152.783 153.44 152.943 153.44C153.223 153.467 153.509 153.227 153.803 152.72C154.109 152.213 154.489 151.227 154.943 149.76C155.356 148.467 155.563 147.527 155.563 146.94C155.563 146.66 155.516 146.467 155.423 146.36C155.343 146.253 155.223 146.2 155.063 146.2Z" fill="#525252"/>
</svg>
