
<svg width="18" height="18" viewBox="0 0 18 18" fill="none" xmlns="http://www.w3.org/2000/svg">
<path fill-rule="evenodd" clip-rule="evenodd" d="M3.33809 7.03065C3.33809 5.53513 4.55045 4.32277 6.04597 4.32277C7.54149 4.32277 8.75384 5.53513 8.75384 7.03065C8.75384 8.52617 7.54149 9.7385 6.04597 9.7385C4.55045 9.7385 3.33809 8.52617 3.33809 7.03065ZM6.04597 5.7998C5.36619 5.7998 4.81511 6.35087 4.81511 7.03065C4.81511 7.71043 5.36619 8.2615 6.04597 8.2615C6.72575 8.2615 7.27682 7.71043 7.27682 7.03065C7.27682 6.35087 6.72575 5.7998 6.04597 5.7998ZM9.0493 1.09863e-07H8.95073C7.2882 -6.89014e-06 5.97362 -1.28597e-05 4.92809 0.11326C3.85696 0.22931 2.97154 0.47208 2.21122 1.02448C1.75583 1.35535 1.35535 1.75583 1.02448 2.21122C0.47208 2.97154 0.22931 3.85696 0.11326 4.92809C-1.28597e-05 5.97362 -6.89014e-06 7.2882 1.09863e-07 8.95073V9.0493C-6.89014e-06 10.7118 -1.28597e-05 12.0264 0.11326 13.0719C0.22931 14.143 0.47208 15.0285 1.02448 15.7888C1.35535 16.2442 1.75583 16.6447 2.21122 16.9755C2.97154 17.5279 3.85696 17.7707 4.92809 17.8867C5.97362 18 7.28819 18 8.9507 18H9.0493C10.7118 18 12.0264 18 13.0719 17.8867C14.143 17.7707 15.0285 17.5279 15.7888 16.9755C16.2442 16.6447 16.6447 16.2442 16.9755 15.7888C17.5279 15.0285 17.7707 14.143 17.8867 13.0719C18 12.0264 18 10.7118 18 9.0493V8.9507C18 7.28819 18 5.97362 17.8867 4.92809C17.7707 3.85696 17.5279 2.97154 16.9755 2.21122C16.6447 1.75583 16.2442 1.35535 15.7888 1.02448C15.0285 0.47208 14.143 0.22931 13.0719 0.11326C12.0264 -1.28597e-05 10.7118 -6.89014e-06 9.0493 1.09863e-07ZM3.09366 2.23904C3.5554 1.90357 4.14641 1.70802 5.08981 1.60581C6.04596 1.50221 7.28069 1.50128 9 1.50128C10.7193 1.50128 11.9541 1.50221 12.9102 1.60581C13.8536 1.70802 14.4446 1.90357 14.9064 2.23904C15.2343 2.47731 15.5227 2.76571 15.761 3.09366C16.0965 3.5554 16.292 4.14641 16.3942 5.08981C16.4978 6.04596 16.4988 7.28069 16.4988 9C16.4988 9.2959 16.4987 9.5774 16.4982 9.8456C16.219 9.6693 15.9921 9.5382 15.7641 9.445C14.5408 8.94517 13.1436 9.1372 12.1005 9.9484C11.8265 10.1615 11.5749 10.4468 11.2073 10.8636L10.3416 11.8448C9.7934 12.466 8.86496 12.574 8.18884 12.0951C6.88868 11.1741 5.10199 11.3894 4.05782 12.5929L2.15597 14.7849C1.87078 14.3409 1.69927 13.7729 1.60581 12.9102C1.50221 11.9541 1.50128 10.7193 1.50128 9C1.50128 7.28069 1.50221 6.04596 1.60581 5.08981C1.70802 4.14641 1.90357 3.5554 2.23904 3.09366C2.47731 2.76571 2.76571 2.47731 3.09366 2.23904ZM3.20061 15.8346C3.64671 16.1255 4.21768 16.2997 5.08981 16.3942C6.04596 16.4978 7.28069 16.4988 9 16.4988C10.7193 16.4988 11.9541 16.4978 12.9102 16.3942C13.8536 16.292 14.4446 16.0965 14.9064 15.761C15.2343 15.5227 15.5227 15.2343 15.761 14.9064C16.0965 14.4446 16.292 13.8536 16.3942 12.9102C16.4364 12.5209 16.461 12.0849 16.476 11.5893L16.1329 11.367C15.577 11.007 15.3817 10.8843 15.2054 10.8123C14.4714 10.5124 13.6332 10.6276 13.0073 11.1143C12.8569 11.2313 12.702 11.4021 12.2638 11.8987L11.4491 12.822C10.4015 14.0093 8.6272 14.2156 7.33509 13.3004C6.65476 12.8185 5.71984 12.9311 5.17345 13.5609L3.20061 15.8346Z" fill="#201F29"/>
</svg>