
<svg width="16" height="20" viewBox="0 0 16 20" fill="none" xmlns="http://www.w3.org/2000/svg">
<path fill-rule="evenodd" clip-rule="evenodd" d="M8.43 6.72308e-05C9.0553 -0.000548378 9.5687 -0.00105384 10.0425 0.198975C10.4079 0.35323 10.7072 0.60877 11.0276 0.924586C11.0709 0.966946 11.1142 1.01044 11.1572 1.05401C11.2106 1.10802 11.2649 1.16349 11.3205 1.22024L14.803 4.76965C14.8581 4.82568 14.9119 4.88046 14.9644 4.93436C15.0081 4.97918 15.0518 5.02435 15.0943 5.06942C15.4037 5.39567 15.6539 5.70025 15.805 6.07195C16.001 6.55428 16.0005 7.07697 15.9999 7.71458V11.9049C15.9999 13.5983 15.9999 14.9466 15.8605 16.0035C15.7166 17.094 15.4121 17.9876 14.719 18.694C14.0257 19.4006 13.1485 19.7112 12.0779 19.8579C11.0408 20 9.7177 20 8.0564 20H7.94344C6.28219 20 4.95908 20 3.92191 19.8579C2.8514 19.7112 1.97413 19.4006 1.28085 18.694C0.58774 17.9876 0.28324 17.094 0.13939 16.0035C-1.98483e-05 14.9466 -9.83062e-06 13.5982 1.69385e-07 11.9048V8.09537C-9.83062e-06 6.40192 -1.98483e-05 5.05356 0.13939 3.99667C0.28324 2.90617 0.58774 2.01254 1.28085 1.30611C1.97413 0.59951 2.8514 0.28894 3.92191 0.142248C4.95912 0.00012058 6.28226 0.000132325 7.94358 0.000147093L8.43 6.72308e-05ZM9.0734 1.53666C9.0633 1.70072 9.0634 1.88221 9.0635 2.05673V2.66264C9.0634 3.48889 9.0634 4.1847 9.1365 4.73867C9.214 5.32606 9.3857 5.86668 9.8134 6.30256C10.2412 6.7386 10.7721 6.91388 11.349 6.99293C11.8928 7.06744 12.5757 7.06742 13.3862 7.06739L13.9811 7.0674C14.1516 7.06746 14.3292 7.06752 14.4899 7.05731C14.4991 7.2293 14.5015 7.47099 14.5015 7.83557V11.8476C14.5015 13.611 14.5 14.8569 14.3755 15.8006C14.2539 16.7225 14.0275 17.2409 13.6587 17.6168C13.2901 17.9925 12.7819 18.223 11.878 18.3469C10.9524 18.4737 9.7302 18.4753 7.99993 18.4753C6.26966 18.4753 5.04749 18.4737 4.12187 18.3469C3.21796 18.223 2.70976 17.9925 2.34116 17.6168C1.9724 17.2409 1.74598 16.7225 1.62438 15.8006C1.49989 14.8569 1.49831 13.611 1.49831 11.8476V8.15256C1.49831 6.38915 1.49989 5.14321 1.62438 4.19952C1.74598 3.27766 1.9724 2.7592 2.34116 2.38336C2.70976 2.00768 3.21796 1.77714 4.12187 1.65328C5.04749 1.52644 6.26966 1.52481 7.99993 1.52481H8.3109C8.668 1.52481 8.9049 1.5273 9.0734 1.53666ZM10.5618 2.60501V2.61002C10.5618 3.50252 10.5634 4.09524 10.6215 4.53583C10.6767 4.95453 10.7704 5.12 10.8737 5.22531C10.9769 5.33045 11.1387 5.42569 11.549 5.4819C11.981 5.5411 12.5622 5.54272 13.438 5.54272H13.4441L10.5618 2.60501Z" fill="#201F29"/>
</svg>
