<svg width="320" height="16" viewBox="0 0 336 16" fill="none" xmlns="http://www.w3.org/2000/svg">
<g clip-path="url(#clip0_404_1386)">
<rect x="-14.5" y="6.5" width="144" height="3" fill="url(#paint0_linear_404_1386)"/>
<path d="M149.2 8.704C149.2 9.368 149.116 9.972 148.948 10.516C148.788 11.052 148.54 11.516 148.204 11.908C147.876 12.3 147.46 12.6 146.956 12.808C146.46 13.016 145.88 13.12 145.216 13.12C144.536 13.12 143.944 13.016 143.44 12.808C142.944 12.592 142.528 12.292 142.192 11.908C141.864 11.516 141.62 11.048 141.46 10.504C141.3 9.96 141.22 9.356 141.22 8.692C141.22 7.812 141.364 7.044 141.652 6.388C141.94 5.732 142.38 5.22 142.972 4.852C143.572 4.484 144.324 4.3 145.228 4.3C146.108 4.3 146.84 4.484 147.424 4.852C148.016 5.212 148.46 5.724 148.756 6.388C149.052 7.044 149.2 7.816 149.2 8.704ZM142.588 8.704C142.588 9.392 142.68 9.984 142.864 10.48C143.048 10.968 143.336 11.348 143.728 11.62C144.12 11.884 144.616 12.016 145.216 12.016C145.824 12.016 146.32 11.884 146.704 11.62C147.088 11.348 147.372 10.968 147.556 10.48C147.74 9.984 147.832 9.392 147.832 8.704C147.832 7.672 147.624 6.868 147.208 6.292C146.8 5.708 146.14 5.416 145.228 5.416C144.62 5.416 144.12 5.548 143.728 5.812C143.336 6.076 143.048 6.452 142.864 6.94C142.68 7.428 142.588 8.016 142.588 8.704ZM154.11 6.412C154.222 6.412 154.346 6.42 154.482 6.436C154.618 6.444 154.73 6.456 154.818 6.472L154.686 7.66C154.598 7.636 154.494 7.616 154.374 7.6C154.254 7.584 154.142 7.576 154.038 7.576C153.798 7.576 153.566 7.624 153.342 7.72C153.126 7.808 152.93 7.94 152.754 8.116C152.578 8.284 152.438 8.492 152.334 8.74C152.238 8.988 152.19 9.272 152.19 9.592V13H150.918V6.532H151.926L152.094 7.684H152.142C152.278 7.452 152.442 7.24 152.634 7.048C152.826 6.856 153.046 6.704 153.294 6.592C153.542 6.472 153.814 6.412 154.11 6.412ZM164.197 10.684C164.197 11.196 164.073 11.632 163.825 11.992C163.577 12.352 163.221 12.632 162.757 12.832C162.293 13.024 161.741 13.12 161.101 13.12C160.789 13.12 160.489 13.1 160.201 13.06C159.913 13.028 159.645 12.98 159.397 12.916C159.149 12.852 158.929 12.772 158.737 12.676V11.452C159.057 11.596 159.433 11.728 159.865 11.848C160.297 11.96 160.737 12.016 161.185 12.016C161.569 12.016 161.889 11.964 162.145 11.86C162.401 11.756 162.593 11.612 162.721 11.428C162.849 11.244 162.913 11.028 162.913 10.78C162.913 10.516 162.845 10.296 162.709 10.12C162.581 9.936 162.377 9.768 162.097 9.616C161.825 9.456 161.457 9.288 160.993 9.112C160.673 8.992 160.381 8.86 160.117 8.716C159.861 8.564 159.633 8.388 159.433 8.188C159.241 7.988 159.093 7.756 158.989 7.492C158.885 7.228 158.833 6.92 158.833 6.568C158.833 6.096 158.949 5.692 159.181 5.356C159.421 5.02 159.749 4.764 160.165 4.588C160.581 4.404 161.065 4.312 161.617 4.312C162.081 4.312 162.509 4.36 162.901 4.456C163.301 4.544 163.681 4.668 164.041 4.828L163.633 5.896C163.305 5.76 162.973 5.648 162.637 5.56C162.301 5.472 161.949 5.428 161.581 5.428C161.261 5.428 160.993 5.476 160.777 5.572C160.561 5.668 160.397 5.8 160.285 5.968C160.181 6.136 160.129 6.332 160.129 6.556C160.129 6.82 160.189 7.04 160.309 7.216C160.429 7.392 160.621 7.556 160.885 7.708C161.149 7.852 161.497 8.012 161.929 8.188C162.409 8.372 162.817 8.572 163.153 8.788C163.497 9.004 163.757 9.264 163.933 9.568C164.109 9.864 164.197 10.236 164.197 10.684ZM167.002 6.532V13H165.73V6.532H167.002ZM166.378 4.072C166.57 4.072 166.738 4.128 166.882 4.24C167.026 4.352 167.098 4.54 167.098 4.804C167.098 5.06 167.026 5.248 166.882 5.368C166.738 5.48 166.57 5.536 166.378 5.536C166.17 5.536 165.994 5.48 165.85 5.368C165.714 5.248 165.646 5.06 165.646 4.804C165.646 4.54 165.714 4.352 165.85 4.24C165.994 4.128 166.17 4.072 166.378 4.072ZM171.232 6.412C171.648 6.412 172.024 6.492 172.36 6.652C172.696 6.812 172.98 7.056 173.212 7.384H173.272L173.416 6.532H174.448V13.084C174.448 13.692 174.34 14.204 174.124 14.62C173.908 15.036 173.576 15.348 173.128 15.556C172.688 15.772 172.132 15.88 171.46 15.88C170.996 15.88 170.568 15.848 170.176 15.784C169.784 15.72 169.424 15.62 169.096 15.484V14.368C169.328 14.48 169.572 14.572 169.828 14.644C170.084 14.724 170.356 14.78 170.644 14.812C170.932 14.852 171.228 14.872 171.532 14.872C172.06 14.872 172.468 14.72 172.756 14.416C173.044 14.12 173.188 13.7 173.188 13.156V12.94C173.188 12.836 173.192 12.7 173.2 12.532C173.208 12.356 173.216 12.228 173.224 12.148H173.176C172.952 12.484 172.676 12.732 172.348 12.892C172.028 13.044 171.656 13.12 171.232 13.12C170.416 13.12 169.776 12.828 169.312 12.244C168.856 11.652 168.628 10.832 168.628 9.784C168.628 9.08 168.732 8.48 168.94 7.984C169.148 7.48 169.444 7.092 169.828 6.82C170.22 6.548 170.688 6.412 171.232 6.412ZM171.496 7.468C171.16 7.468 170.876 7.56 170.644 7.744C170.412 7.92 170.236 8.18 170.116 8.524C169.996 8.868 169.936 9.292 169.936 9.796C169.936 10.548 170.068 11.12 170.332 11.512C170.604 11.904 171 12.1 171.52 12.1C171.824 12.1 172.08 12.06 172.288 11.98C172.504 11.9 172.68 11.776 172.816 11.608C172.96 11.44 173.064 11.228 173.128 10.972C173.2 10.708 173.236 10.392 173.236 10.024V9.784C173.236 9.232 173.172 8.788 173.044 8.452C172.924 8.108 172.736 7.86 172.48 7.708C172.224 7.548 171.896 7.468 171.496 7.468ZM179.717 6.412C180.469 6.412 181.045 6.6 181.445 6.976C181.845 7.352 182.045 7.956 182.045 8.788V13H180.785V8.968C180.785 8.464 180.677 8.088 180.461 7.84C180.253 7.584 179.917 7.456 179.453 7.456C178.797 7.456 178.341 7.652 178.085 8.044C177.837 8.436 177.713 9 177.713 9.736V13H176.441V6.532H177.449L177.629 7.396H177.701C177.845 7.172 178.021 6.988 178.229 6.844C178.437 6.7 178.669 6.592 178.925 6.52C179.181 6.448 179.445 6.412 179.717 6.412ZM188.389 6.532V13H187.117V6.532H188.389ZM187.765 4.072C187.957 4.072 188.125 4.128 188.269 4.24C188.413 4.352 188.485 4.54 188.485 4.804C188.485 5.06 188.413 5.248 188.269 5.368C188.125 5.48 187.957 5.536 187.765 5.536C187.557 5.536 187.381 5.48 187.237 5.368C187.101 5.248 187.033 5.06 187.033 4.804C187.033 4.54 187.101 4.352 187.237 4.24C187.381 4.128 187.557 4.072 187.765 4.072ZM193.663 6.412C194.415 6.412 194.991 6.6 195.391 6.976C195.791 7.352 195.991 7.956 195.991 8.788V13H194.731V8.968C194.731 8.464 194.623 8.088 194.407 7.84C194.199 7.584 193.863 7.456 193.399 7.456C192.743 7.456 192.287 7.652 192.031 8.044C191.783 8.436 191.659 9 191.659 9.736V13H190.387V6.532H191.395L191.575 7.396H191.647C191.791 7.172 191.967 6.988 192.175 6.844C192.383 6.7 192.615 6.592 192.871 6.52C193.127 6.448 193.391 6.412 193.663 6.412Z" fill="#555252"/>
<rect x="350.5" y="9.5" width="142" height="3" transform="rotate(-180 350.5 9.5)" fill="url(#paint1_linear_404_1386)"/>
</g>
<defs>
<linearGradient id="paint0_linear_404_1386" x1="123.5" y1="7.49993" x2="18.2359" y2="9.87985" gradientUnits="userSpaceOnUse">
<stop stop-color="#05C3B6"/>
<stop offset="1" stop-color="#C4C4C4" stop-opacity="0"/>
</linearGradient>
<linearGradient id="paint1_linear_404_1386" x1="486.583" y1="10.4999" x2="382.78" y2="12.8142" gradientUnits="userSpaceOnUse">
<stop stop-color="#05C3B6"/>
<stop offset="1" stop-color="#C4C4C4" stop-opacity="0"/>
</linearGradient>
<clipPath id="clip0_404_1386">
<rect width="336" height="16" fill="white"/>
</clipPath>
</defs>
</svg>
