<svg width="16" height="20" viewBox="0 0 16 20" fill="none" xmlns="http://www.w3.org/2000/svg">
<path fill-rule="evenodd" clip-rule="evenodd" d="M11.7778 2.62018L13.1037 3.24811C13.4281 3.40175 13.4281 3.90998 13.1037 4.06362L11.7778 4.69155C11.6787 4.73847 11.6009 4.82748 11.5618 4.93851L10.8262 7.0289C10.6935 7.40601 10.2106 7.406 10.0779 7.0289L9.3423 4.93851C9.3032 4.82747 9.2254 4.73847 9.1263 4.69155L7.80047 4.06362C7.47607 3.90998 7.47607 3.40175 7.80047 3.24811L9.1263 2.62018C9.2254 2.57325 9.3032 2.48425 9.3423 2.37322L10.0779 0.282832C10.2106 -0.0942779 10.6935 -0.0942769 10.8262 0.282833L11.5618 2.37322C11.6009 2.48425 11.6787 2.57325 11.7778 2.62018ZM4.89139 6.53025C5.28706 5.47075 6.64499 5.47075 7.04066 6.53025L8.5141 10.4757L11.2048 11.6765C12.1745 12.1093 12.1745 13.6263 11.2048 14.0591L8.5141 15.2599L7.04066 19.2054C6.64499 20.2649 5.28706 20.2649 4.89139 19.2054L3.41795 15.2599L0.727219 14.0591C-0.242411 13.6263 -0.242401 12.1093 0.727219 11.6765L3.41795 10.4757L4.89139 6.53025ZM5.96602 7.6939L4.67025 11.1636C4.55106 11.4828 4.32064 11.7355 4.03094 11.8648L1.78348 12.8678L4.03094 13.8708C4.32064 14.0001 4.55106 14.2528 4.67025 14.572L5.96602 18.0417L7.2618 14.572C7.38099 14.2528 7.61141 14.0001 7.90111 13.8708L10.1486 12.8678L7.90111 11.8648C7.61141 11.7355 7.38099 11.4828 7.2618 11.1636L5.96602 7.6939ZM15.8225 8.58168L14.8749 8.11049C14.8014 8.0739 14.7442 8.00623 14.7162 7.92263L14.206 6.40035C14.1089 6.1108 13.7383 6.1108 13.6413 6.40035L13.1311 7.92263C13.1031 8.00623 13.0459 8.07391 12.9723 8.11049L12.0248 8.58168C11.7881 8.69939 11.7881 9.0708 12.0248 9.1885L12.9723 9.6597C13.0459 9.69628 13.1031 9.76396 13.1311 9.84755L13.6413 11.3698C13.7383 11.6594 14.1089 11.6594 14.206 11.3698L14.7162 9.84755C14.7442 9.76396 14.8014 9.69628 14.8749 9.6597L15.8225 9.1885C16.0592 9.0708 16.0592 8.69939 15.8225 8.58168Z" fill="#201F29"/>
</svg>