<svg width="18" height="18" viewBox="0 0 18 18" fill="none" xmlns="http://www.w3.org/2000/svg">
<path fill-rule="evenodd" clip-rule="evenodd" d="M14.157 1.54498C14.1692 1.55593 14.1815 1.56692 14.1938 1.57795L15.0902 2.38075C15.1025 2.39178 15.1148 2.40277 15.127 2.41372C15.6228 2.85774 16.0501 3.24031 16.3508 3.59246C16.6731 3.96987 16.9245 4.39523 16.953 4.93419C16.9815 5.47315 16.7764 5.92243 16.4957 6.33143C16.2338 6.71306 15.8493 7.13817 15.4031 7.63155L7.76197 16.0808C7.7375 16.1078 7.71334 16.1346 7.68947 16.161C7.26875 16.6271 6.93599 16.9956 6.49506 17.2258C6.05413 17.4559 5.56024 17.5187 4.93579 17.5982C4.90036 17.6027 4.8645 17.6073 4.82821 17.6119L3.07295 17.8368C2.57681 17.9004 2.12818 17.9579 1.76259 17.9534C1.36385 17.9485 0.929719 17.871 0.565329 17.5447C0.200939 17.2184 0.0779191 16.7969 0.0311291 16.4028C-0.0117809 16.0415 -0.00140892 15.5914 0.0100691 15.0938L0.0504591 13.3331C0.0512991 13.2967 0.0520892 13.2607 0.0528792 13.2252C0.0666992 12.5989 0.0776391 12.1035 0.261299 11.643C0.444969 11.1824 0.778369 10.8144 1.1999 10.3491C1.22382 10.3227 1.24802 10.296 1.27249 10.2689L8.88048 1.85637C8.89156 1.84411 8.90261 1.8319 8.91362 1.81972C9.3598 1.32629 9.7442 0.901154 10.0981 0.601904C10.4774 0.281194 10.9048 0.0310141 11.4464 0.00263413C11.988 -0.0257409 12.4395 0.178384 12.8505 0.457684C13.234 0.718294 13.6612 1.10091 14.157 1.54498ZM12.0018 1.69441C11.7299 1.5096 11.6064 1.49391 11.5255 1.49815C11.4446 1.50239 11.3236 1.53089 11.0726 1.7431C10.805 1.96937 10.4879 2.31768 9.9991 2.85817L2.39111 11.2708C1.86247 11.8553 1.73154 12.0162 1.66008 12.1954C1.58862 12.3746 1.57302 12.5811 1.55498 13.3673L1.51571 15.079C1.5028 15.6416 1.49674 15.9836 1.52564 16.227C1.53901 16.3397 1.55662 16.3955 1.56699 16.4201C1.56933 16.4256 1.57114 16.4292 1.57227 16.4313C1.57444 16.4322 1.57821 16.4336 1.584 16.4353C1.6097 16.443 1.66731 16.4546 1.78127 16.456C2.02753 16.459 2.36874 16.4171 2.92961 16.3452L4.63605 16.1266C5.41984 16.0262 5.62454 15.989 5.79609 15.8995C5.96765 15.81 6.11472 15.6635 6.64336 15.079L14.2513 6.66638C14.7401 6.12589 15.0549 5.77545 15.2529 5.48688C15.4386 5.21626 15.4544 5.09344 15.4502 5.01294C15.4459 4.93244 15.4173 4.81194 15.204 4.56222C14.9766 4.29594 14.6266 3.98034 14.0835 3.49392L13.1871 2.69112C12.6439 2.20471 12.2918 1.89147 12.0018 1.69441ZM9.4722 17.2512C9.4722 16.8377 9.8091 16.5024 10.2246 16.5024H17.2475C17.6631 16.5024 18 16.8377 18 17.2512C18 17.6648 17.6631 18 17.2475 18H10.2246C9.8091 18 9.4722 17.6648 9.4722 17.2512Z" fill="#201F29"/>
</svg>
