
<svg width="23" height="23" viewBox="0 0 23 23" fill="none" xmlns="http://www.w3.org/2000/svg">
<path fill-rule="evenodd" clip-rule="evenodd" d="M7.78831 11.3742C9.35181 11.3742 10.6193 10.1068 10.6193 8.54326C10.6193 6.97977 9.35181 5.71231 7.78831 5.71231C6.22481 5.71231 4.95736 6.97977 4.95736 8.54326C4.95736 10.1068 6.22481 11.3742 7.78831 11.3742ZM11.563 1.40381e-07H11.437C9.3127 -8.80406e-06 7.63296 -1.64318e-05 6.297 0.144721C4.92834 0.293007 3.79697 0.603214 2.82545 1.30906C2.24356 1.73184 1.73184 2.24356 1.30906 2.82545C0.603214 3.79697 0.293007 4.92834 0.144721 6.297C-1.64318e-05 7.63296 -8.80406e-06 9.3127 1.40381e-07 11.437V11.563C-8.80406e-06 13.6873 -1.64318e-05 15.3671 0.144721 16.703C0.293007 18.0716 0.603214 19.2031 1.30906 20.1746C1.73184 20.7565 2.24356 21.2682 2.82545 21.6909C3.79697 22.3968 4.92834 22.707 6.297 22.8552C7.63296 23 9.31269 23 11.437 23H11.563C13.6873 23 15.3671 23 16.703 22.8552C18.0716 22.707 19.2031 22.3968 20.1746 21.6909C20.7565 21.2682 21.2682 20.7565 21.6909 20.1746C22.3968 19.2031 22.707 18.0716 22.8552 16.703C23 15.3671 23 13.6873 23 11.563V11.437C23 9.31269 23 7.63296 22.8552 6.297C22.707 4.92834 22.3968 3.79697 21.6909 2.82545C21.2682 2.24356 20.7565 1.73184 20.1746 1.30906C19.2031 0.603214 18.0716 0.293007 16.703 0.144721C15.3671 -1.64318e-05 13.6873 -8.80406e-06 11.563 1.40381e-07ZM21.0818 11.5L21.0817 11.8564C20.9727 11.8118 20.8699 11.7714 20.7719 11.735C20.3286 11.5702 20.0431 11.51 19.7929 11.5017C19.344 11.4868 18.8979 11.5723 18.4925 11.7512C18.2666 11.8509 18.0305 12.0111 17.6945 12.3254C17.3497 12.6482 16.9474 13.0862 16.3669 13.72L14.8834 15.3395C13.3305 17.0346 10.6241 17.3268 8.69123 16.0081C7.56508 15.2398 5.99172 15.3925 5.06248 16.3605L2.76303 18.9045C2.39372 18.3353 2.17218 17.6069 2.05187 16.4964C1.91949 15.2747 1.9183 13.6969 1.9183 11.5C1.9183 9.3031 1.91949 7.72539 2.05187 6.50365C2.18247 5.29819 2.43234 4.54301 2.861 3.95301C3.16545 3.53396 3.53396 3.16545 3.95301 2.861C4.54301 2.43234 5.29819 2.18247 6.50365 2.05187C7.72539 1.91949 9.3031 1.9183 11.5 1.9183C13.6969 1.9183 15.2747 1.91949 16.4964 2.05187C17.7018 2.18247 18.457 2.43234 19.0471 2.861C19.466 3.16545 19.8346 3.53396 20.1391 3.95301C20.5677 4.54301 20.8176 5.29819 20.9481 6.50365C21.0805 7.72539 21.0818 9.3031 21.0818 11.5Z"/>
</svg>
