<svg width="18" height="26" viewBox="0 0 18 26" fill="none" xmlns="http://www.w3.org/2000/svg">
<path fill-rule="evenodd" clip-rule="evenodd" d="M10.2855 25.9838C10.0362 26.0005 9.76906 26.0003 9.47723 25.9999H8.9419C7.05165 25.9999 5.55445 25.9999 4.38269 25.8146C3.17678 25.6241 2.20073 25.2224 1.43098 24.3174C0.661242 23.4124 0.319636 22.2649 0.157512 20.8471C-2.21878e-05 19.4695 -1.10575e-05 17.7091 1.92514e-07 15.4868V10.5131C-1.10575e-05 8.29072 -3.34382e-05 6.53041 0.157512 5.15277C0.319636 3.73497 0.661242 2.58742 1.43098 1.68242C2.20072 0.777433 3.17678 0.375804 4.38269 0.185187C5.55443 -3.15309e-05 7.05163 -1.68134e-05 8.94186 3.52606e-07L9.05795 3.4088e-07C10.9482 -1.7207e-05 12.4454 -3.22461e-05 13.6171 0.185185C14.8231 0.375803 15.7992 0.777432 16.5689 1.68242C17.3386 2.58742 17.6802 3.73497 17.8424 5.15277C17.9999 6.53041 17.9999 8.29068 17.9999 10.5131V15.9796C18.0002 16.3228 18.0005 16.6369 17.9862 16.9302H15.1178C14.1937 16.93 13.4229 16.93 12.8112 17.0268C12.1655 17.1288 11.5824 17.3533 11.114 17.9041C10.6455 18.4549 10.4545 19.1404 10.3678 19.8996C10.2855 20.6188 10.2855 21.5249 10.2855 22.6114V25.9838ZM11.8285 25.38C12.1214 25.1256 12.3995 24.798 12.7197 24.4208L16.6569 19.7919C16.9776 19.4154 17.2563 19.0886 17.4726 18.7441H15.1712C14.1797 18.7441 13.5136 18.746 13.0168 18.8245C12.5422 18.8995 12.339 19.0292 12.205 19.1868C12.0709 19.3444 11.9607 19.5832 11.8969 20.1413C11.8301 20.7254 11.8284 21.5085 11.8284 22.6742L11.8285 25.38Z" />
</svg>