
<svg width="20" height="16" viewBox="0 0 20 16" fill="none" xmlns="http://www.w3.org/2000/svg">
<path fill-rule="evenodd" clip-rule="evenodd" d="M10 6.75C8.7574 6.75 7.75004 7.75736 7.75004 9C7.75004 10.2426 8.7574 11.25 10 11.25C11.2427 11.25 12.25 10.2426 12.25 9C12.25 7.75736 11.2427 6.75 10 6.75ZM6.25004 9C6.25004 6.92893 7.92898 5.25 10 5.25C12.0711 5.25 13.75 6.92893 13.75 9C13.75 11.0711 12.0711 12.75 10 12.75C7.92898 12.75 6.25004 11.0711 6.25004 9ZM15 7C15.5523 7 16 6.55228 16 6C16 5.44772 15.5523 5 15 5C14.4478 5 14 5.44772 14 6C14 6.55228 14.4478 7 15 7ZM9.23001 2.10041e-05C9.26249 3.10041e-05 9.29539 4.10313e-05 9.32874 4.10313e-05H10.6713C10.7047 4.10313e-05 10.7376 3.10041e-05 10.77 2.10041e-05C11.5228 -0.000228996 12.0442 -0.000399083 12.5403 0.135491C12.831 0.215111 13.1108 0.328901 13.3738 0.474381C13.8225 0.722641 14.191 1.08467 14.7231 1.6073C14.7461 1.62985 14.7693 1.65269 14.7929 1.67584L14.9418 1.82192C14.9439 1.824 14.945 1.82507 14.945 1.82507C14.9781 1.85617 15.0192 1.87777 15.0639 1.8875L15.0659 1.88791L15.0683 1.88842L15.1134 1.89728C15.3633 1.94633 15.516 1.9763 15.6531 2.01018C18.107 2.61627 19.8689 4.72581 19.9931 7.20664C20 7.34532 20 7.49819 20 7.7484V8.7776C20 8.8206 20 8.8632 20 8.9052C20.0002 10.2508 20.0003 11.0713 19.8176 11.7662C19.2948 13.7548 17.7128 15.3077 15.6869 15.8209C14.9789 16.0003 14.1431 16.0002 12.7722 16C12.7294 16 12.686 16 12.6422 16H7.35787C7.314 16 7.27066 16 7.22784 16C5.85698 16.0002 5.02115 16.0003 4.31319 15.8209C2.28728 15.3077 0.705265 13.7548 0.182436 11.7662C-0.000269592 11.0713 -0.000163549 10.2508 1.05557e-05 8.9052C1.59797e-05 8.8632 2.14633e-05 8.8206 2.14633e-05 8.7776L2.11057e-05 7.74831C1.47876e-05 7.49815 1.09132e-05 7.3453 0.00695396 7.20664C0.131172 4.72581 1.89301 2.61627 4.34693 2.01018C4.48409 1.9763 4.63678 1.94633 4.88668 1.89728L4.9317 1.88842C4.93577 1.8876 4.93618 1.8875 4.93618 1.8875C4.98087 1.87777 5.02199 1.85617 5.05503 1.82507C5.05503 1.82507 5.05534 1.82479 5.05829 1.82192L5.20714 1.67583C5.23072 1.65269 5.25398 1.62984 5.27693 1.6073C5.80901 1.08467 6.17759 0.722631 6.62627 0.474381C6.8892 0.328901 7.16906 0.215111 7.45977 0.135491C7.95587 -0.000399083 8.47729 -0.000228996 9.23001 2.10041e-05ZM9.32874 1.47243C8.43943 1.47243 8.13663 1.47873 7.86293 1.5537C7.6885 1.60147 7.52058 1.66974 7.36282 1.75703C7.11529 1.89399 6.89663 2.09971 6.2678 2.71697L6.13178 2.85049C6.11962 2.86243 6.10664 2.87517 6.09316 2.88786C5.86184 3.10557 5.57406 3.25674 5.26121 3.32491C5.24298 3.32888 5.22497 3.33241 5.20811 3.33572L5.20398 3.33653C4.92386 3.39152 4.80979 3.41414 4.71295 3.43806C2.89919 3.88604 1.59696 5.44526 1.50515 7.27892C1.50024 7.37682 1.50002 7.49105 1.50002 7.77146V8.7776C1.50002 10.2908 1.50602 10.9083 1.63485 11.3983C2.02129 12.8681 3.1906 14.0159 4.68801 14.3952C5.18722 14.5217 5.81626 14.5276 7.35787 14.5276H12.6422C14.1838 14.5276 14.8128 14.5217 15.312 14.3952C16.8094 14.0159 17.9788 12.8681 18.3652 11.3983C18.494 10.9083 18.5 10.2908 18.5 8.7776V7.77146C18.5 7.49105 18.4998 7.37682 18.4949 7.27892C18.4031 5.44526 17.1009 3.88604 15.2871 3.43806C15.1903 3.41414 15.0762 3.39152 14.7961 3.33653L14.792 3.33572C14.7751 3.33242 14.7571 3.32888 14.7388 3.32491C14.426 3.25674 14.1382 3.10557 13.9069 2.88786C13.8934 2.87517 13.8804 2.86242 13.8683 2.85048L13.7322 2.71697C13.1034 2.09971 12.8848 1.89399 12.6372 1.75703C12.4795 1.66974 12.3115 1.60147 12.1371 1.5537C11.8634 1.47873 11.5606 1.47243 10.6713 1.47243H9.32874Z" fill="#201F29"/>
</svg>
