<svg width="20" height="26" viewBox="0 0 20 26" fill="none" xmlns="http://www.w3.org/2000/svg">
<path fill-rule="evenodd" clip-rule="evenodd" d="M14.4625 16.6014C14.4625 18.9658 12.4646 20.8827 10 20.8827C7.53543 20.8827 5.5375 18.9658 5.5375 16.6014C5.5375 15.0103 6.3263 13.4194 6.96589 12.3908C7.29131 11.8675 7.45404 11.6058 7.76269 11.5811C8.07135 11.5563 8.2796 11.7993 8.6961 12.2854C9.50002 13.2235 10.113 14.0484 10.5209 14.6319C10.8105 15.0463 10.9552 15.2534 11.1399 15.2586C11.3245 15.2638 11.4755 15.0708 11.7774 14.6844L12.3739 13.9214C12.572 13.6679 12.6711 13.5412 12.8359 13.531C13.0006 13.5209 13.0997 13.6209 13.2979 13.8208C13.7901 14.3177 14.4625 15.2444 14.4625 16.6014ZM7.05166 0.0005496C6.49635 -0.0131768 6.06934 0.231715 5.71652 0.566566C5.41645 0.851371 5.11675 1.25498 4.8051 1.67469L4.76672 1.72636C2.85581 4.29859 0 9.13684 0 15.1523C0 21.1433 4.47715 26 10 26C15.5229 26 20 21.1433 20 15.1523C20 11.1808 18.3115 7.62378 17.0191 5.58524L16.9967 5.54993C16.8919 5.38414 16.7615 5.17811 16.6254 5.02376C16.456 4.83164 16.1541 4.57609 15.7102 4.59615C15.2576 4.61661 14.9753 4.91119 14.8256 5.11401C14.7015 5.28213 14.5855 5.50268 14.4899 5.68459L13.5575 7.45462C13.4725 7.616 13.402 7.74965 13.339 7.86438C13.2644 7.75814 13.1804 7.63402 13.079 7.48413L9.29978 1.8937C8.98114 1.42216 8.68282 0.980742 8.38661 0.66612C8.04757 0.306007 7.62352 0.0146851 7.05166 0.0005496ZM6.10152 2.89323C6.46626 2.40226 6.67194 2.13069 6.84535 1.96611C6.96705 1.8506 6.9999 1.85722 7.01026 1.85931L7.01261 1.85968C7.02581 1.86 7.02904 1.86104 7.03968 1.86681C7.0584 1.87697 7.10521 1.90768 7.18728 1.99485C7.37053 2.18949 7.58579 2.50293 7.95338 3.04668L11.7271 8.62887C11.9349 8.93639 12.1435 9.24531 12.345 9.46628C12.5673 9.71004 12.9308 10.0164 13.4501 9.98432C13.9695 9.95229 14.2986 9.60324 14.494 9.33373C14.671 9.08942 14.8461 8.75684 15.0204 8.42575L15.7984 6.9488C16.9556 8.86369 18.2857 11.8941 18.2857 15.1523C18.2857 20.1163 14.5761 24.1403 10 24.1403C5.42392 24.1403 1.71429 20.1163 1.71429 15.1523C1.71429 9.75954 4.28976 5.332 6.10152 2.89323Z"/>
</svg>
