<svg width="19" height="23" viewBox="0 0 19 23" fill="none" xmlns="http://www.w3.org/2000/svg">
<path fill-rule="evenodd" clip-rule="evenodd" d="M8.62903 0.157606C9.17702 0.490893 9.37266 1.24384 9.06595 1.83934L8.77522 2.40382C9.81809 2.3171 10.8917 2.41736 11.9582 2.72789C17.0249 4.2032 20.0317 9.86263 18.674 15.3686C17.8769 18.6017 15.7509 21.0628 13.1103 22.2441C12.5295 22.5039 11.865 22.203 11.626 21.5719C11.3869 20.9409 11.6638 20.2187 12.2446 19.9589C14.2579 19.0581 15.8714 17.1867 16.4774 14.7289C17.51 10.5414 15.223 6.23704 11.3696 5.11499C10.6012 4.89124 9.82934 4.81079 9.07746 4.85849L9.66764 5.38694C10.1523 5.82091 10.2215 6.59967 9.82207 7.12633C9.42277 7.65301 8.7061 7.72816 8.22144 7.29418L5.8262 5.1494C5.4018 4.76939 5.28848 4.11379 5.55705 3.59231L7.08146 0.632405C7.38815 0.036894 8.08102 -0.175681 8.62903 0.157606ZM4.20533 5.55736C4.6613 6.02663 4.68086 6.8087 4.24904 7.3042C3.45109 8.2198 2.84501 9.3582 2.52263 10.6656C1.4901 14.8531 3.77693 19.1575 7.63042 20.2795C8.09525 20.4149 8.56055 20.4976 9.02129 20.5315C9.64787 20.5776 10.1214 21.1669 10.079 21.8478C10.0366 22.5286 9.49436 23.0432 8.86777 22.9971C8.26079 22.9526 7.64976 22.8436 7.04183 22.6667C1.97515 21.1913 -1.03163 15.5319 0.325985 10.026C0.748656 8.31177 1.54629 6.81148 2.59786 5.60487C3.02969 5.10937 3.74938 5.08811 4.20533 5.55736Z"/>
</svg>